<?xml version="1.0" encoding="utf-8"?>
<!-- Generator: Adobe Illustrator 27.5.0, SVG Export Plug-In . SVG Version: 6.00 Build 0)  -->
<svg version="1.1" xmlns="http://www.w3.org/2000/svg" xmlns:xlink="http://www.w3.org/1999/xlink" x="0px" y="0px"
	 viewBox="0 0 3710 3710" style="enable-background:new 0 0 3710 3710;" xml:space="preserve">
<g id="Background">
	<g>
		<g>
			<rect style="fill:#FFFFFF;" width="3710" height="3710"/>
		</g>
	</g>
</g>
<g id="Illustration">
	<g>
		<path style="fill:#F4F7FA;" d="M3221.442,1650.966c-76.318-499.541-389.224-1113.263-1007.405-1177.489
			c0,0-469.351-57.09-932.029,29.435c-274.599,51.352-515.383,204.217-667.741,423.922
			C461.909,1146.54,411.016,1414.44,472.781,1669.85c40.116,165.891,67.224,337.582,59.784,508.045
			c-12.948,296.675-5.498,573.599,282.418,750.527c257.076,157.978,580.61,297.308,889.266,321.712
			c209.76,16.585,444.993-10.253,647.163-64.864C3381.711,2906.954,3297.76,2150.507,3221.442,1650.966z"/>
		<g>
			<g>
				<linearGradient id="SVGID_1_" gradientUnits="userSpaceOnUse" x1="1051.9293" y1="1926.0516" x2="1554.2158" y2="1926.0516">
					<stop  offset="0" style="stop-color:#FF9085"/>
					<stop  offset="1" style="stop-color:#FB6FBB"/>
				</linearGradient>
				<path style="fill:url(#SVGID_1_);" d="M1323.107,2392.24c-0.348,0.056-0.696,0.111-1.047,0.167
					c-56.765,9.063-127.907,2.729-173.879-35.05c-24.223-19.906-40.631-46.16-45.669-77.252
					c-2.988-18.441-4.611-37.901-1.725-56.455c3.021-19.424,10.531-38.186,20.201-55.22c5.4-9.513,11.558-18.699,18.094-27.469
					c18.723-25.119,62.956-60.411,42.445-96.024c-12.399-21.527-40.979-34.783-59.856-49.879
					c-40.351-32.268-69.331-78.792-69.739-131.918c-0.32-41.735,25.846-83.049,55.369-111.109
					c120.137-114.187,31.629-310.566,201.783-295.144s207.069,185.232,143.341,343.775
					c-21.336,53.079-47.302,107.339-61.794,162.812c-11.409,43.67,4.715,73.87,40.278,99.676
					c19.133,13.884,47.1,23.348,63.721,39.706c37.128,36.54,66.872,87.756,58.009,141.361
					c-8.792,53.173-54.117,92.231-101.884,112.433C1409.448,2374.119,1367.289,2385.164,1323.107,2392.24z"/>
				<g style="opacity:0.8;">
					<path style="fill:#FFFFFF;" d="M1303.072,2346.618c-0.398,0-0.804-0.069-1.2-0.214c-1.813-0.663-2.747-2.671-2.084-4.484
						c0.718-1.969,71.223-198.818,9.492-356.575c-62.74-160.334,7.441-331.977,8.157-333.693c0.743-1.781,2.79-2.62,4.574-1.88
						c1.783,0.745,2.624,2.793,1.881,4.574c-0.705,1.691-69.786,170.801-8.098,328.45c62.707,160.25-8.708,359.529-9.438,361.522
						C1305.839,2345.738,1304.499,2346.618,1303.072,2346.618z"/>
				</g>
			</g>
			<g>
				
					<linearGradient id="SVGID_00000105406756364344537190000001188137800063729052_" gradientUnits="userSpaceOnUse" x1="608.4127" y1="1799.949" x2="1409.1216" y2="1799.949">
					<stop  offset="0" style="stop-color:#FFC444"/>
					<stop  offset="0.9964" style="stop-color:#F36F56"/>
				</linearGradient>
				<path style="fill:url(#SVGID_00000105406756364344537190000001188137800063729052_);" d="M1358.987,2096.563
					c-14.245-22.547-30.545-43.756-47.56-62.94c-57.493-64.824-97.849-133.639-123.672-216.666
					c-20.341-65.4-19.904-140.175-32.526-207.702c-9.146-48.93-25.712-96.285-42.928-142.876
					c-36.656-99.196-91.682-214.285-184.037-273.855c-42.761-27.581-106.165-30.302-153.327-10.544
					c-61.095,25.596-115.115,75.467-119.034,144.813c-5.389,95.36,77.904,202.256,9.019,289.945
					c-105.477,134.27-56.171,283.442,88.837,356.454c47.256,23.793,102.634,45.849,142.118,82.391
					c39.604,36.652,15.997,99.186,11.597,145.611c-4.129,43.565-8.681,94.179,19.081,131.426
					c46.839,62.842,159.944,90.227,233.465,96.436c71.139,6.008,151.973-1.848,201.8-58.805
					C1436.902,2284.423,1412.393,2181.096,1358.987,2096.563z"/>
				<g style="opacity:0.8;">
					<path style="fill:#FFFFFF;" d="M1243.213,2369.933c-1.413,0-2.744-0.862-3.272-2.261
						c-2.309-6.104-232.344-613.172-363.604-857.81c-0.913-1.702-0.273-3.822,1.429-4.735c1.703-0.912,3.822-0.274,4.735,1.429
						c131.475,245.041,361.672,852.534,363.982,858.641c0.684,1.807-0.227,3.825-2.033,4.508
						C1244.042,2369.86,1243.624,2369.933,1243.213,2369.933z"/>
				</g>
			</g>
			<g>
				
					<linearGradient id="SVGID_00000164478048571516201880000018197131699406900617_" gradientUnits="userSpaceOnUse" x1="495.9359" y1="2219.5464" x2="1299.1676" y2="2219.5464">
					<stop  offset="0.0036" style="stop-color:#E38DDD"/>
					<stop  offset="1" style="stop-color:#9571F6"/>
				</linearGradient>
				<path style="fill:url(#SVGID_00000164478048571516201880000018197131699406900617_);" d="M1143.786,2455.8
					c15.309-2.167,30.568-4.682,45.766-7.12c42.473-6.814,95.086-20.044,108.444-67.438c3.805-13.498-2.747-37.594-4.323-51.622
					c-1.605-14.29-3.642-28.575-6.967-42.577c-4.593-19.349-11.954-37.541-21.5-54.955c-16.541-30.171-35.45-52.873-70.653-59.707
					c-25.669-4.983-54.105-6.143-80.193-5.288c-142.221,4.663-159.707-46.63-237.812-156.209s-592.198,67.613-282.11,262.292
					c0,0,46.629,30.309,216.825,10.492c31.133-3.625,70.503-6.035,96.895,14.099c46.548,35.513-0.257,110.773,46.744,140.303
					c27.406,17.218,71.451,22.282,102.934,23.492C1086.608,2462.667,1115.283,2459.835,1143.786,2455.8z"/>
				<g style="opacity:0.8;">
					<path style="fill:#FFFFFF;" d="M1238.71,2397.132c-1.083,0-2.151-0.501-2.835-1.443
						c-0.895-1.233-90.926-123.629-218.655-152.521c-49.962-11.301-93.147-36.59-134.909-61.047
						c-70.421-41.238-136.935-80.191-235.103-60.175c-1.898,0.388-3.74-0.837-4.126-2.728c-0.386-1.893,0.836-3.74,2.728-4.125
						c100.79-20.555,171.579,20.904,240.035,60.993c41.303,24.187,84.012,49.198,132.919,60.26
						c130.341,29.483,221.864,153.982,222.774,155.236c1.134,1.563,0.786,3.75-0.779,4.884
						C1240.14,2396.916,1239.422,2397.132,1238.71,2397.132z"/>
				</g>
			</g>
		</g>
		<path style="fill:#D8DEE8;" d="M2961.167,1229.506l-74.268-5.343c-3.586-33.753-10.289-67.464-19.999-100.81l67.382-32.422
			c18.539-8.923,26.254-31.131,17.238-49.609l-56.384-115.558c-9.017-18.479-31.371-26.273-49.938-17.405l-68.016,32.485
			c-20.415-27.999-42.922-53.938-67.407-77.462l42.521-61.951c11.602-16.903,7.129-40.002-9.987-51.604l-107.162-72.63
			c-17.156-11.625-40.516-7.361-52.178,9.538l-43.177,62.563c-31.401-13.998-63.973-25.336-97.365-33.814l5.705-75.93
			c1.538-20.474-14.053-38.404-34.828-40.049l-130.171-10.315c-20.854-1.652-39.044,13.639-40.614,34.164l-5.842,76.221
			c-34.042,3.246-68.095,9.57-101.833,18.82l-33.872-69.416c-9.091-18.636-31.828-26.564-50.794-17.702l-118.85,55.534
			c-19.045,8.9-27.101,31.271-17.98,49.96l33.97,69.622c-28.716,20.084-55.349,42.288-79.561,66.469l-64.826-43.537
			c-17.481-11.742-41.39-7.373-53.407,9.762l-75.279,107.364c-12.062,17.202-7.62,40.678,9.924,52.422l64.971,43.494
			c-14.612,31.397-26.4,63.998-35.301,97.409l-78.548-5.65c-21.269-1.53-39.886,14.125-41.576,34.972l-10.573,130.512
			c-1.695,20.895,14.212,39.035,35.516,40.513l77.892,5.405c3.255,34.206,9.755,68.385,19.28,102.215l-70.488,33.664
			c-19.296,9.217-27.493,31.974-18.294,50.828l57.524,117.895c9.199,18.852,32.287,26.611,51.555,17.341l69.831-33.602
			c20.767,28.661,43.757,55.133,68.769,79.124l-43.428,62.928c-12.058,17.472-7.586,41.095,9.989,52.749l109.784,72.816
			c17.536,11.63,41.476,6.883,53.469-10.592l43.002-62.651c32.271,14.159,65.763,25.437,100.052,33.776l-5.738,74.868
			c-1.605,20.924,14.204,38.952,35.297,40.259l131.649,8.165c21.014,1.302,39.312-14.568,40.88-35.438l5.568-74.122
			c34.734-3.769,69.414-10.778,103.697-20.791l32.487,66.579c9.119,18.69,31.814,26.321,50.677,17.048l117.709-57.872
			c18.784-9.234,26.629-31.825,17.536-50.459l-32.39-66.383c28.741-20.821,55.315-43.75,79.34-68.661l61.198,40.967
			c17.207,11.521,40.596,6.885,52.235-10.346l72.661-107.551c11.596-17.166,7.096-40.411-10.052-51.927l-61.442-41.265
			c14.106-31.633,25.441-64.4,33.8-97.94l74.043,5.139c20.604,1.429,38.481-14.074,39.939-34.623l9.091-128.36
			C2997.23,1248.802,2981.738,1230.986,2961.167,1229.506z M2463.166,1627.097c-191.074,92.88-421.78,14.962-514.248-174.545
			c-92.466-189.508-10.857-417.159,181.224-507.972c190.927-90.267,419.007-11.09,510.471,176.359
			C2732.074,1308.386,2653.091,1534.777,2463.166,1627.097z"/>
		<g>
			
				<linearGradient id="SVGID_00000165235844767024769280000000677801049482457266_" gradientUnits="userSpaceOnUse" x1="1830.4307" y1="5096.0161" x2="665.3823" y2="6153.2847" gradientTransform="matrix(0 -1 1 0 -3755.802 3738.6064)">
				<stop  offset="0.0036" style="stop-color:#26264F"/>
				<stop  offset="1" style="stop-color:#444B8C"/>
			</linearGradient>
			<path style="fill:url(#SVGID_00000165235844767024769280000000677801049482457266_);" d="M3089.631,2578.983
				c39.632,15.652,42.534,50.22,15.864,60.92l-1261.65,506.559c-45.17,18.122-116.339,12.614-153.319-14.095L565.685,2321.618
				c-16.126-11.647,0.147-26.96,35.717-34.22l1072.405-218.872c24.91-5.084,61.54-2.662,82.076,5.448L3089.631,2578.983z"/>
			
				<linearGradient id="SVGID_00000003801322439224795380000008619097269246288043_" gradientUnits="userSpaceOnUse" x1="694.3206" y1="2621.5083" x2="3374.0049" y2="2546.8423">
				<stop  offset="0" style="stop-color:#444B8C"/>
				<stop  offset="0.9964" style="stop-color:#26264F"/>
			</linearGradient>
			<path style="fill:url(#SVGID_00000003801322439224795380000008619097269246288043_);" d="M3070.411,2569.816
				c39.723,15.491,51.301,36.817,24.897,47.419l-1236.13,496.325c-44.632,17.92-112.449,10.813-149.746-15.57L600.806,2313.8
				c-16.325-11.547-0.413-26.739,34.914-33.947l1065.481-217.404c24.759-5.052,61.346-2.654,81.981,5.393L3070.411,2569.816z"/>
			
				<linearGradient id="SVGID_00000173119821435094342600000018261123100637884852_" gradientUnits="userSpaceOnUse" x1="935.4406" y1="6038.2744" x2="1672.7933" y2="5137.0654" gradientTransform="matrix(0 -1 1 0 -3755.802 3738.6064)">
				<stop  offset="0" style="stop-color:#444B8C"/>
				<stop  offset="0.9964" style="stop-color:#26264F"/>
			</linearGradient>
			<path style="fill:url(#SVGID_00000173119821435094342600000018261123100637884852_);" d="M631.18,2307.481l1116.18,775.789
				c19.954,13.869,55.685,17.575,79.405,8.201l1012.44-400.07l222.017-87.731c14.188-5.606,8.298-16.942-12.895-25.285
				l-1285.974-506.211c-11.051-4.35-30.701-5.644-44.01-2.904l-212.607,43.771l-856.148,176.261
				C630.644,2293.202,622.332,2301.331,631.18,2307.481z"/>
			<path style="fill:#EAEDF3;" d="M1748.135,2074.926l1203.865,476.867c7.585,3.004,9.278,7.171,3.319,9.413l-106.798,40.158
				l-1123.309,422.299c-9.792,3.688-23.483,2.681-30.538-2.169L649.988,2303.309c-3.315-2.279,0.488-5.475,8.432-7.119l12.694-2.634
				l1059.721-219.548C1736.432,2072.853,1744.026,2073.299,1748.135,2074.926z"/>
			<path style="fill:#D8DEE8;" d="M2848.696,2601.307L1725.33,3023.624c-9.792,3.687-23.602,2.721-30.656-2.129L649.988,2303.309
				c-3.315-2.279,0.488-5.475,8.432-7.119l12.694-2.634c58.442,6.988,159.756,7.64,331.867-11.211
				c397.114-43.509,308.95,224.354,884.721,163.118C2341.517,2397.196,2479.584,2587.288,2848.696,2601.307z"/>
			
				<linearGradient id="SVGID_00000075161153895407175730000012437892066809195153_" gradientUnits="userSpaceOnUse" x1="2483.2539" y1="2632.4243" x2="2440.7783" y2="2955.8916">
				<stop  offset="0" style="stop-color:#444B8C"/>
				<stop  offset="0.9964" style="stop-color:#26264F"/>
			</linearGradient>
			<path style="fill:url(#SVGID_00000075161153895407175730000012437892066809195153_);" d="M2609.922,2753.81l-247.201,96.211
				c-13.749,5.351-35.047,4.307-47.432-2.321l-0.927-0.496c-12.302-6.583-11.044-16.145,2.671-21.369l246.751-93.976
				c12.336-4.698,32.329-3.759,44.778,2.107l0.938,0.442C2622.029,2740.312,2622.274,2749.003,2609.922,2753.81z"/>
			
				<linearGradient id="SVGID_00000178167649384523630930000006525895323826731172_" gradientUnits="userSpaceOnUse" x1="1226.03" y1="2165.0439" x2="1235.475" y2="2175.4519">
				<stop  offset="0" style="stop-color:#FF9085"/>
				<stop  offset="1" style="stop-color:#FB6FBB"/>
			</linearGradient>
			<path style="fill:url(#SVGID_00000178167649384523630930000006525895323826731172_);" d="M1241.353,2167.471
				c3.261,1.625,0.967,3.966-5.143,5.228c-6.121,1.264-13.73,0.962-16.978-0.674c-3.24-1.633-0.901-3.971,5.206-5.225
				C1230.535,2165.55,1238.099,2165.85,1241.353,2167.471z"/>
		</g>
		
			<linearGradient id="SVGID_00000025402670274281851770000012687966880983036553_" gradientUnits="userSpaceOnUse" x1="1153.2671" y1="2358.0313" x2="1732.3546" y2="2358.0313">
			<stop  offset="0" style="stop-color:#FF9085"/>
			<stop  offset="1" style="stop-color:#FB6FBB"/>
		</linearGradient>
		<path style="fill:url(#SVGID_00000025402670274281851770000012687966880983036553_);" d="M1655.115,2130.378
			c0,0-20.966,7.074-57.485,20.106c-36.502,13.058-88.573,31.995-150.359,56.372c-30.881,12.21-64.189,25.791-98.995,41.007
			c-34.732,15.291-71.218,31.973-107.07,51.939c-8.933,5.016-17.809,10.258-26.4,15.878c-8.561,5.617-16.976,11.604-24.227,18.222
			c-3.604,3.287-6.905,6.793-9.221,10.225c-1.126,1.694-1.98,3.363-2.381,4.681c-0.411,1.348-0.362,2.121-0.233,2.629
			c0.12,0.506,0.472,1.199,1.493,2.193c1.011,0.971,2.602,2.029,4.411,2.991c3.686,1.941,8.299,3.509,13.118,4.73
			c4.831,1.236,9.902,2.201,15.077,2.961c2.557,0.379,5.252,0.75,7.758,1.025l8.19,0.906c10.615,1.02,21.382,1.798,32.241,2.196
			c21.687,0.8,43.561,0.442,65.427-0.804c43.75-2.477,87.424-8.231,130.28-15.177c42.885-6.943,84.927-15.23,126.046-22.616
			c20.576-3.663,40.913-7.12,61.306-9.523c10.211-1.177,20.435-2.087,30.9-2.289c5.287-0.005,10.539-0.002,16.073,0.588
			c5.523,0.596,11.207,1.459,17.377,3.704c3.093,1.183,6.31,2.677,9.508,5.014c1.601,1.219,3.167,2.412,4.611,4.11
			c0.72,0.811,1.456,1.583,2.098,2.469c0.619,0.924,1.214,1.87,1.782,2.829c1.237,1.883,1.829,3.984,2.594,6.032
			c0.595,2.028,0.875,4.028,1.177,6.041c0.076,1.848,0.137,3.753,0.071,5.559c-0.17,1.68-0.372,3.359-0.603,5.026
			c-1.202,6.288-3.26,11.47-5.417,16.355c-1.134,2.329-2.302,4.69-3.464,6.884c-1.077,1.988-2.149,3.968-3.218,5.939
			c-8.658,15.937-17.332,31.097-25.564,45.527c-16.42,28.832-31.453,55.177-41.009,78.719c-4.738,11.667-7.757,22.792-8.031,31.351
			c-0.054,4.215,0.708,7.411,1.689,9.806c1.055,2.299,2.793,3.897,4.827,5.601c4.622,3.144,11.471,5.186,17.816,6.029
			c6.292,1.015,12.129,1.291,16.89,1.348c4.699,0.231,8.522-0.118,11.004-0.125c2.51-0.073,3.806-0.109,3.806-0.109l0.723-0.022
			c8.574-0.246,15.726,6.504,15.973,15.078c0.248,8.574-6.503,15.725-15.077,15.971c-0.029,0.002-0.145,0.003-0.174,0.005
			c0,0-1.477,0.025-4.337,0.078c-2.889-0.02-7.037,0.292-12.73-0.029c-5.623-0.16-12.641-0.533-21.213-2.019
			c-2.161-0.421-4.364-0.76-6.705-1.316c-2.37-0.686-4.822-1.396-7.352-2.127c-2.545-0.841-5.25-2.107-7.961-3.253
			c-2.73-1.322-5.575-3.145-8.389-4.967c-5.56-4.273-11.166-10.148-14.504-17.75c-3.216-7.479-4.365-15.539-4.131-23.031
			c0.757-14.876,5.227-28.342,10.696-41.629c11.197-26.458,26.971-52.975,43.802-81.734c8.444-14.364,17.177-29.18,25.847-44.655
			c1.094-1.958,2.191-3.924,3.293-5.897c0.907-1.741,1.817-3.489,2.732-5.244c1.574-3.423,2.88-6.851,3.469-9.67
			c0.057-0.63,0.143-1.252,0.261-1.879c-0.005-0.514-0.04-0.94,0.025-1.424c-0.126-0.272-0.096-0.619-0.145-0.831
			c-0.168-0.089,0.007-0.38-0.175-0.409c-0.044-0.045-0.059-0.104-0.054-0.186c-0.037-0.069-0.167-0.113-0.214-0.196
			c-0.019-0.175-0.386-0.362-0.646-0.604c-0.6-0.49-1.706-1.063-3.046-1.608c-5.744-2.204-14.815-2.948-23.738-2.943
			c-9.098,0.056-18.631,0.757-28.316,1.75c-19.398,2.027-39.45,5.152-59.865,8.516c-40.847,6.787-83.262,14.578-126.697,21.031
			c-43.431,6.46-87.929,11.752-132.824,13.71c-22.439,0.984-44.979,1.067-67.442-0.055c-11.219-0.558-22.444-1.508-33.699-2.746
			l-8.178-1.012c-2.945-0.365-5.678-0.78-8.535-1.24c-5.655-0.91-11.335-2.053-17.064-3.598c-5.726-1.56-11.519-3.479-17.435-6.667
			c-2.949-1.641-5.956-3.566-8.837-6.395c-2.843-2.788-5.602-6.793-6.718-11.582c-1.168-4.765-0.554-9.568,0.705-13.329
			c1.266-3.819,3.059-6.906,4.935-9.668c3.811-5.437,8.065-9.662,12.39-13.541c8.682-7.697,17.782-13.922,26.935-19.776
			c9.162-5.823,18.427-11.128,27.692-16.175c37.116-20.033,74.092-36.335,109.321-51.306c35.263-14.873,68.9-28.08,100.063-39.935
			c62.342-23.664,114.771-41.961,151.536-54.576c36.774-12.586,57.938-19.421,57.938-19.421l0.018-0.007
			c3.31-1.069,6.862,0.748,7.93,4.059C1660.156,2125.757,1658.375,2129.278,1655.115,2130.378z"/>
		<g>
			
				<linearGradient id="SVGID_00000074403864880009410350000001299581143563859096_" gradientUnits="userSpaceOnUse" x1="-3112.0867" y1="2891.3975" x2="-3085.0493" y2="3235.5093" gradientTransform="matrix(1 0 0 1 5646.8398 0)">
				<stop  offset="0" style="stop-color:#444B8C"/>
				<stop  offset="0.9964" style="stop-color:#26264F"/>
			</linearGradient>
			<path style="fill:url(#SVGID_00000074403864880009410350000001299581143563859096_);" d="M2585.071,3063.331
				c0,0-101.389,49.367-103.045,57.247c-1.655,7.88,65.204-2.642,92.498-1.505c27.294,1.137,49.747-7.505,47.277-19.891
				c-2.472-12.385-12.025-43.537-12.025-43.537L2585.071,3063.331z"/>
			
				<linearGradient id="SVGID_00000113321237095317315390000013908989577521918100_" gradientUnits="userSpaceOnUse" x1="-3045.8101" y1="3083.2542" x2="-3050.7175" y2="2727.4573" gradientTransform="matrix(1 0 0 1 5646.8398 0)">
				<stop  offset="0" style="stop-color:#FFC444"/>
				<stop  offset="0.9964" style="stop-color:#F36F56"/>
			</linearGradient>
			<path style="fill:url(#SVGID_00000113321237095317315390000013908989577521918100_);" d="M2581.362,3023.266l6.167,48.905
				c0,0,16.052,6.121,26.834-1.116l4.6-53.638L2581.362,3023.266z"/>
			
				<linearGradient id="SVGID_00000150796741997057222700000011555069807849270719_" gradientUnits="userSpaceOnUse" x1="-2636.2507" y1="2851.1858" x2="-2609.1682" y2="3195.8716" gradientTransform="matrix(1 0 0 1 5646.8398 0)">
				<stop  offset="0" style="stop-color:#444B8C"/>
				<stop  offset="0.9964" style="stop-color:#26264F"/>
			</linearGradient>
			<path style="fill:url(#SVGID_00000150796741997057222700000011555069807849270719_);" d="M3058.839,3024.438l11.793,20.282
				c3.298,5.672,4.281,12.501,2.699,18.966c-4.124,16.867-12.361,49.736-15.952,58.308c-4.891,11.675-70.504,18.61-70.504,18.61
				s-5.849-8.821,7.773-19.475c13.622-10.653,22.377-12.33,27.186-28.052c4.807-15.72,8.015-60.191,8.015-60.191L3058.839,3024.438z
				"/>
			
				<linearGradient id="SVGID_00000176023548769232338060000005048773722088981393_" gradientUnits="userSpaceOnUse" x1="-2609.5845" y1="3076.8083" x2="-2614.4915" y2="2721.0391" gradientTransform="matrix(1 0 0 1 5646.8398 0)">
				<stop  offset="0" style="stop-color:#FFC444"/>
				<stop  offset="0.9964" style="stop-color:#F36F56"/>
			</linearGradient>
			<path style="fill:url(#SVGID_00000176023548769232338060000005048773722088981393_);" d="M3009.752,2972.895
				c4.307,3.679,25.38,72.204,25.38,72.204s6.821,9.345,19.78-4.447c12.957-13.791,5.864-6.186,5.864-6.186l-2.429-67.396
				L3009.752,2972.895z"/>
			
				<linearGradient id="SVGID_00000155113597072768155690000011197941945227836847_" gradientUnits="userSpaceOnUse" x1="-2986.5552" y1="3213.9736" x2="-2995.7605" y2="2608.7498" gradientTransform="matrix(1 0 0 1 5646.8398 0)">
				<stop  offset="0" style="stop-color:#311944"/>
				<stop  offset="1" style="stop-color:#893976"/>
			</linearGradient>
			<path style="fill:url(#SVGID_00000155113597072768155690000011197941945227836847_);" d="M2525.577,2040.725
				c-5.348,145.884-5.567,304.38,2.268,473.702c8.822,190.669,26.55,366.896,48.891,526.645c8.305,0.284,17.033,0.331,26.148,0.057
				c6.156-0.184,12.121-0.505,17.886-0.932c11.594-33.124,25.298-76.684,37.569-128.715
				c12.901-54.711,20.684-103.787,26.229-150.715c19.525-165.235-3.356-179.65,12.49-302.104
				c14.032-108.451,33.989-112.686,57.417-266.662c25.419-167.07,6.495-192.134-2.707-201.189
				C2712.594,1952.267,2620.577,1978.508,2525.577,2040.725z"/>
			
				<linearGradient id="SVGID_00000170999542432812059630000018126550081968390019_" gradientUnits="userSpaceOnUse" x1="-3125.1033" y1="2507.0505" x2="-2879.625" y2="2507.0505" gradientTransform="matrix(1 0 0 1 5646.8398 0)">
				<stop  offset="0" style="stop-color:#311944"/>
				<stop  offset="1" style="stop-color:#893976"/>
			</linearGradient>
			<path style="opacity:0.3;fill:url(#SVGID_00000170999542432812059630000018126550081968390019_);" d="M2751.768,1990.814
				c-37.363-36.767-122.81-14.509-213.057,41.604c103.822,120.173,115.14,198.13,102.694,248.712
				c-14.067,57.169-56.833,73.635-56.671,136.145c0.201,76.822,64.915,97.171,63.54,178.461
				c-0.909,53.753-29.347,53.196-36.063,119.587c-7.945,78.554,29.206,105.622,17.173,163.742
				c-5.177,25.005-19.953,57.677-62.034,91.335c3.035,23.867,6.145,47.493,9.387,70.675c8.302,0.279,17.032,0.33,26.147,0.053
				c6.156-0.182,12.123-0.501,17.885-0.93c11.595-33.124,25.299-76.683,37.571-128.714c12.901-54.713,20.684-103.787,26.229-150.717
				c19.523-165.233-3.356-179.65,12.49-302.104c14.032-108.451,33.989-112.689,57.415-266.664
				C2779.892,2024.93,2760.97,1999.866,2751.768,1990.814z"/>
			
				<linearGradient id="SVGID_00000066501320910736277070000010820730086321375120_" gradientUnits="userSpaceOnUse" x1="-2798.0249" y1="3211.1067" x2="-2807.2302" y2="2605.8831" gradientTransform="matrix(1 0 0 1 5646.8398 0)">
				<stop  offset="0" style="stop-color:#311944"/>
				<stop  offset="1" style="stop-color:#893976"/>
			</linearGradient>
			<path style="fill:url(#SVGID_00000066501320910736277070000010820730086321375120_);" d="M2589.886,2038.276
				c89.396,140.134,185.817,314.537,272.048,523.289c65.165,157.756,112.427,305.875,147.125,437.88
				c4.696,2.328,15.772,6.975,29.925,4.97c19.305-2.735,30.876-15.937,33.9-19.621c14.123-94.631,12.566-174.774,7.773-232.615
				c-3.069-37.033-8.502-98.706-30.535-174.841c-24.679-85.281-41.646-90.075-73.844-180.301
				c-33.418-93.65-25.324-117.021-57.328-234.22c-13.146-48.144-35.155-119.792-71.469-205.493
				C2761.616,1984.307,2675.751,2011.293,2589.886,2038.276z"/>
			
				<linearGradient id="SVGID_00000072271474812095526550000017929174286700125325_" gradientUnits="userSpaceOnUse" x1="-3111.0664" y1="2037.8983" x2="-2925.2183" y2="1519.6685" gradientTransform="matrix(1 0 0 1 5646.8398 0)">
				<stop  offset="0" style="stop-color:#AA80F9"/>
				<stop  offset="0.9964" style="stop-color:#6165D7"/>
			</linearGradient>
			<path style="fill:url(#SVGID_00000072271474812095526550000017929174286700125325_);" d="M2165.653,2184.375
				c17.194,28.643,87.87,57.04,128.284,41.561c94.489-36.197,154.96-164.939,160.282-267.386
				c1.143-21.998,0.419-43.502,4.579-44.155c10.467-1.65,37.349,131.351,58.448,244.112c16.962,6.651,42.678,13.714,72.066,8.556
				c48.1-8.441,53.824-40.455,107.618-61.329c31.387-12.178,62.139-12.206,123.646-12.263c69.433-0.065,71.346,9.109,84.719,2.453
				c24.748-12.314,53.901-61.493-93.315-672.429c-9.676-40.155-25.986-104.358-71.565-123.047
				c-37.331-15.307-85.325,13.177-179.788,70.767c-47.202,28.779-99.95,61.349-161.844,119.26
				c-42.158,39.448-71.507,66.908-95.688,105.023c-97.506,153.698,15.184,281.791-73.271,478.348
				C2199.411,2141.43,2147.649,2154.382,2165.653,2184.375z"/>
			
				<linearGradient id="SVGID_00000099648130146469691870000013916884695209871535_" gradientUnits="userSpaceOnUse" x1="-3054.9407" y1="2072.9392" x2="-2864.5232" y2="1541.9679" gradientTransform="matrix(1 0 0 1 5646.8398 0)">
				<stop  offset="0" style="stop-color:#AA80F9"/>
				<stop  offset="0.9964" style="stop-color:#6165D7"/>
			</linearGradient>
			<path style="opacity:0.3;fill:url(#SVGID_00000099648130146469691870000013916884695209871535_);" d="M2797.679,2012.519
				c-27.625-15.406-20.64-47.749-44.65-66.233c-35.79-27.554-79.447,22.67-127.08,14.719
				c-103.957-17.353-114.48-293.011-182.034-294.368c-31.789-0.64-62.446,59.861-72.126,106.708
				c-16.937,81.974,47.917,118.545,37.781,220.776c-1.818,18.336-3.73,15.394-48.085,150.863
				c-5.9,18.024-11.309,34.697-16.198,49.875c64.642-54.586,104.652-153.91,108.933-236.31c1.143-21.998,0.419-43.502,4.579-44.155
				c10.467-1.65,37.349,131.351,58.448,244.112c16.962,6.651,42.678,13.714,72.066,8.556c48.1-8.441,53.824-40.455,107.618-61.329
				c31.387-12.178,62.139-12.206,123.646-12.263c69.433-0.065,71.346,9.109,84.719,2.453c10.128-5.041,20.976-16.317,20.188-69.685
				c-20.414-13.604-37.94-17.528-52.244-17.399C2843.906,2009.109,2822.47,2026.343,2797.679,2012.519z"/>
			
				<linearGradient id="SVGID_00000057833090955360209060000001085413910512531618_" gradientUnits="userSpaceOnUse" x1="4635.189" y1="1468.4756" x2="4849.9985" y2="1311.0518" gradientTransform="matrix(-1 0 0 1 7169.9556 0)">
				<stop  offset="0" style="stop-color:#FFC444"/>
				<stop  offset="0.9964" style="stop-color:#F36F56"/>
			</linearGradient>
			<path style="fill:url(#SVGID_00000057833090955360209060000001085413910512531618_);" d="M2439.33,1343.515
				c0,0,25.386,30.879,52.67,46.882c24.658,14.462,79.014-9.898,91.59-12.76c12.576-2.861-2.514,33.42-26.241,58.425
				c-23.726,25.004-102.154,82.192-123.307,83.149c-21.151,0.958,3.408-18.888,16.396-41.998
				c12.99-23.108-5.316-70.884-21.711-85.605C2412.331,1376.886,2439.33,1343.515,2439.33,1343.515z"/>
			<g>
				
					<linearGradient id="SVGID_00000119100310958213578470000006532891620034427024_" gradientUnits="userSpaceOnUse" x1="-3251.4929" y1="1438.8154" x2="-3241.7998" y2="1308.6934" gradientTransform="matrix(1 0 0 1 5646.8398 0)">
					<stop  offset="0" style="stop-color:#444B8C"/>
					<stop  offset="0.9964" style="stop-color:#26264F"/>
				</linearGradient>
				<path style="fill:url(#SVGID_00000119100310958213578470000006532891620034427024_);" d="M2380.999,1367.672
					c-15.157,4.485-18.576,17.003-24.248,15.293c-7.271-2.195-11.018-25.596-3.58-44.787c14.361-37.054,70.032-57.399,89.286-41.577
					c5.012,4.119,10.358,13.145,11.973,22.606c0.749,4.387,0.789,10.427,0.088,22.458c-0.624,10.676-0.441,10.209-0.7,13.363
					c-0.622,7.576-2.55,20.902-9.444,39.373c-2.871-3.374-6.675-7.403-11.474-11.373c-1.846-1.529-9.155-7.444-17.463-11.03
					C2410.085,1369.688,2395.556,1363.364,2380.999,1367.672z"/>
				
					<linearGradient id="SVGID_00000075871128178549220960000017550897697472887213_" gradientUnits="userSpaceOnUse" x1="4755.6611" y1="1263.5116" x2="4690.5205" y2="2082.4268" gradientTransform="matrix(-1 0 0 1 7169.9556 0)">
					<stop  offset="0" style="stop-color:#FFC444"/>
					<stop  offset="0.9964" style="stop-color:#F36F56"/>
				</linearGradient>
				<path style="fill:url(#SVGID_00000075871128178549220960000017550897697472887213_);" d="M2454.901,1373.814
					c0,0-1.282,29.527-27.253,42.491c-23.253,11.607-54.115-40.406-45.625-60.269c2.832-6.626,11.604-13.832,20.592-16.065
					c5.308-1.319,7.913-0.182,16.547-2.517c7.963-2.155,9.511-4.139,12.586-3.475c3.846,0.829,8.75,5.518,12.415,23.869
					c1.907-7.162,6.138-11.962,10.723-12.256c0.731-0.047,2.848,0.172,4.584,1.366
					C2465.76,1351.279,2464.53,1362.228,2454.901,1373.814z"/>
				
					<linearGradient id="SVGID_00000165215972366157858570000010954084291138193051_" gradientUnits="userSpaceOnUse" x1="-3229.4624" y1="1450.6112" x2="-3217.6956" y2="1292.6473" gradientTransform="matrix(1 0 0 1 5646.8398 0)">
					<stop  offset="0" style="stop-color:#444B8C"/>
					<stop  offset="0.9964" style="stop-color:#26264F"/>
				</linearGradient>
				<path style="fill:url(#SVGID_00000165215972366157858570000010954084291138193051_);" d="M2441.381,1341.548
					c0,0,2.315,24.218,0,32.014c-2.316,7.798-11.892,18.501-26.788,20.061c-14.897,1.56-24.701,0-24.701,0
					s11.128,27.788,15.759,28.851c4.632,1.064,33.005-0.384,38.172-5.508c5.167-5.125,11.514-27.516,9.994-37.41
					c-1.519-9.892-9.994-32.281-9.994-32.281L2441.381,1341.548z"/>
			</g>
			<g>
				
					<linearGradient id="SVGID_00000066512817646066376200000000095292628416676536_" gradientUnits="userSpaceOnUse" x1="3845.293" y1="914.4119" x2="3841.6396" y2="1046.3942" gradientTransform="matrix(0.6307 0.776 -0.776 0.6307 1528.7175 -2223.5984)">
					<stop  offset="0.0036" style="stop-color:#26264F"/>
					<stop  offset="1" style="stop-color:#444B8C"/>
				</linearGradient>
				<path style="fill:url(#SVGID_00000066512817646066376200000000095292628416676536_);" d="M3126.035,1478.011
					c-16.399,13.329-40.499,10.839-53.827-5.56l0,0c-13.328-16.399-10.839-40.498,5.56-53.827l83.142-67.573
					c16.399-13.328,40.499-10.839,53.827,5.56l0,0c13.328,16.399,10.839,40.499-5.56,53.827L3126.035,1478.011z"/>
				
					<linearGradient id="SVGID_00000106869960346651693520000003664147653649338282_" gradientUnits="userSpaceOnUse" x1="3871.4141" y1="770.1705" x2="3845.0232" y2="1723.5554" gradientTransform="matrix(0.6307 0.776 -0.776 0.6307 1528.7175 -2223.5984)">
					<stop  offset="0.0036" style="stop-color:#26264F"/>
					<stop  offset="1" style="stop-color:#444B8C"/>
				</linearGradient>
				<path style="fill:url(#SVGID_00000106869960346651693520000003664147653649338282_);" d="M3178.081,1480.087L2173.804,2296.31
					l-86.88-106.897l1004.277-816.222c13.442-10.925,31.398-8.61,42.32,4.829l49.244,60.589
					C3193.687,1452.047,3191.523,1469.163,3178.081,1480.087z"/>
				
					<linearGradient id="SVGID_00000116204414192604041640000014819144872889125041_" gradientUnits="userSpaceOnUse" x1="3834.1543" y1="2721.2905" x2="3808.7927" y2="3637.4961" gradientTransform="matrix(0.6307 0.776 -0.776 0.6307 1528.7175 -2223.5984)">
					<stop  offset="0.0036" style="stop-color:#26264F"/>
					<stop  offset="1" style="stop-color:#444B8C"/>
				</linearGradient>
				<path style="opacity:0.2;fill:url(#SVGID_00000116204414192604041640000014819144872889125041_);" d="M3178.081,1480.087
					l-966.06,785.161c-2.184,1.775-5.814-5.619-3.681-14.146c9.923-39.784,30.752-74.514,55.105-106.997
					c44.86-59.804,101.314-108.408,165.801-145.873c64.494-37.459,135.054-68.011,191.911-115.704
					c72.186-60.472,138.56-127.257,204.541-194.247c49.02-49.809,90.881-105.773,137.262-157.852
					c39.585-44.409,83.695-91.678,144.337-104.599c21.657-4.58,42.736-3.226,65.151,0.086l10.315,12.692
					C3193.687,1452.047,3191.523,1469.163,3178.081,1480.087z"/>
				
					<linearGradient id="SVGID_00000027568594689549944920000004163285777665408933_" gradientUnits="userSpaceOnUse" x1="3837.9338" y1="2876.3562" x2="3857.0664" y2="2876.3562" gradientTransform="matrix(0.6307 0.776 -0.776 0.6307 1528.7175 -2223.5984)">
					<stop  offset="0.0036" style="stop-color:#26264F"/>
					<stop  offset="1" style="stop-color:#444B8C"/>
				</linearGradient>
				<path style="fill:url(#SVGID_00000027568594689549944920000004163285777665408933_);" d="M1718.687,2592.242
					c-3.149,2.56-7.777,2.082-10.336-1.068l-2.798-3.443c-2.559-3.149-2.081-7.777,1.068-10.336l21.259-17.278
					c3.149-2.56,7.777-2.082,10.336,1.068l2.798,3.443c2.559,3.149,2.081,7.777-1.068,10.336L1718.687,2592.242z"/>
				<g>
					
						<linearGradient id="SVGID_00000054238237780556523950000016298798479716612012_" gradientUnits="userSpaceOnUse" x1="3559.4111" y1="2194.238" x2="4061.9712" y2="2290.9404" gradientTransform="matrix(0.5766 0.817 -0.817 0.5766 1749.9878 -2360.6235)">
						<stop  offset="0.0036" style="stop-color:#26264F"/>
						<stop  offset="1" style="stop-color:#444B8C"/>
					</linearGradient>
					<path style="fill:url(#SVGID_00000054238237780556523950000016298798479716612012_);" d="M2120.219,2168.161
						c-7.238,5.108-17.247,3.381-22.354-3.857l-1.779-2.521c-5.108-7.238-3.381-17.247,3.857-22.354l81.535-57.539
						c7.238-5.108,17.246-3.381,22.354,3.857l1.779,2.521c5.108,7.238,3.381,17.246-3.857,22.354L2120.219,2168.161z"/>
					
						<linearGradient id="SVGID_00000182512611764718529410000005356557255874630038_" gradientUnits="userSpaceOnUse" x1="3530.0708" y1="2346.6987" x2="4032.6313" y2="2443.4011" gradientTransform="matrix(0.5766 0.817 -0.817 0.5766 1749.9878 -2360.6235)">
						<stop  offset="0.0036" style="stop-color:#26264F"/>
						<stop  offset="1" style="stop-color:#444B8C"/>
					</linearGradient>
					<path style="fill:url(#SVGID_00000182512611764718529410000005356557255874630038_);" d="M1991.87,2261.147
						c-7.238,5.108-17.246,3.381-22.354-3.857l-1.779-2.521c-5.108-7.238-3.381-17.246,3.857-22.354l81.535-57.539
						c7.238-5.108,17.246-3.381,22.354,3.857l1.779,2.521c5.108,7.238,3.381,17.246-3.857,22.354L1991.87,2261.147z"/>
				</g>
				
					<linearGradient id="SVGID_00000129893599386797626520000013923797676257551020_" gradientUnits="userSpaceOnUse" x1="3823.2051" y1="2499.4094" x2="3879.7913" y2="2795.6536" gradientTransform="matrix(0.6307 0.776 -0.776 0.6307 1528.7175 -2223.5984)">
					<stop  offset="0.0036" style="stop-color:#26264F"/>
					<stop  offset="1" style="stop-color:#444B8C"/>
				</linearGradient>
				<polygon style="fill:url(#SVGID_00000129893599386797626520000013923797676257551020_);" points="1974.505,2487.905 
					1853.324,2533.267 1843.513,2537.501 1729.486,2580.778 1717.73,2566.313 1784.572,2464.636 1789.945,2456.64 
					1860.834,2348.044 				"/>
				<polygon style="fill:#FFFFFF;" points="1853.483,2533.138 1845.714,2535.712 1786.604,2462.984 1790.767,2455.972 				"/>
				
					<linearGradient id="SVGID_00000049933444725417097210000000108055317087235204_" gradientUnits="userSpaceOnUse" x1="3840.4685" y1="2814.0662" x2="3830.4133" y2="3177.3159" gradientTransform="matrix(0.6307 0.776 -0.776 0.6307 1528.7175 -2223.5984)">
					<stop  offset="0.0036" style="stop-color:#26264F"/>
					<stop  offset="1" style="stop-color:#444B8C"/>
				</linearGradient>
				<path style="fill:url(#SVGID_00000049933444725417097210000000108055317087235204_);" d="M2336.168,2172.17
					c1.446-1.308,0.732-2.797-0.497-4.309l-42.61-52.427l-4.635-5.703l-42.61-52.427c-1.229-1.512-2.541-2.515-4.116-1.367
					l-388.894,282.76c-3.569,2.602-6.636,7.131-7.206,11.51c-0.572,4.381-0.032,9.386,2.751,12.811l44.912,55.259l16.992,20.907
					l44.912,55.259c2.783,3.425,7.793,4.796,12.199,5.132c4.404,0.337,8.775-1.179,12.051-4.141L2336.168,2172.17z"/>
			</g>
			
				<linearGradient id="SVGID_00000044155305915444981860000000777284831262074262_" gradientUnits="userSpaceOnUse" x1="4336.1001" y1="1087.9084" x2="4251.9653" y2="2145.6104" gradientTransform="matrix(-1 0 0 1 7169.9556 0)">
				<stop  offset="0" style="stop-color:#FFC444"/>
				<stop  offset="0.9964" style="stop-color:#F36F56"/>
			</linearGradient>
			<path style="fill:url(#SVGID_00000044155305915444981860000000777284831262074262_);" d="M2938.999,1723.815
				c0,0-28.617-4.599-42.607,10.119c-13.99,14.719-50.225,35.942-66.454,28.55l74.327-59.853l34.733-16.731V1723.815z"/>
			
				<linearGradient id="SVGID_00000154414311004457641560000003219686734633156748_" gradientUnits="userSpaceOnUse" x1="-3002.2417" y1="2102.5874" x2="-2812.0417" y2="1572.2229" gradientTransform="matrix(1 0 0 1 5646.8398 0)">
				<stop  offset="0" style="stop-color:#AA80F9"/>
				<stop  offset="0.9964" style="stop-color:#6165D7"/>
			</linearGradient>
			<path style="fill:url(#SVGID_00000154414311004457641560000003219686734633156748_);" d="M2914.455,1732.87
				c20.856-0.763,105.953-6.401,169.44-78.498c64.291-73.009,88.979-194.361,41.215-277.199
				c-38.136-66.143-108.365-83.279-180.309-100.837c-93.839-22.9-167.531-5.505-196.977,3.041
				c-50.101,14.539-127.517,37.008-135.822,86.653c-9.177,54.872,67.328,135.424,141.825,139.358
				c75.186,3.974,115.411-71.827,183.407-48.805c4.615,1.563,37.257,13.141,52.596,44.158c24.21,48.959-3.212,129.12-74.709,193.356
				C2914.899,1707.023,2914.678,1719.944,2914.455,1732.87z"/>
			
				<linearGradient id="SVGID_00000130608595033492926890000011724498123643031949_" gradientUnits="userSpaceOnUse" x1="2075.5278" y1="2068.1655" x2="2372.4436" y2="2397.2935">
				<stop  offset="0" style="stop-color:#FFC444"/>
				<stop  offset="0.9964" style="stop-color:#F36F56"/>
			</linearGradient>
			<path style="fill:url(#SVGID_00000130608595033492926890000011724498123643031949_);" d="M2147.965,2095.185
				c0,0-77.714,22.339-61.041,49.954c16.673,27.615,73.741-18.437,75.019-30.468
				C2163.221,2102.639,2168.17,2096.434,2147.965,2095.185z"/>
		</g>
	</g>
</g>
</svg>
