<svg xmlns="http://www.w3.org/2000/svg" version="1.1" xmlns:xlink="http://www.w3.org/1999/xlink" xmlns:svgjs="http://svgjs.dev/svgjs" width="2000" height="1500" viewBox="0 0 2000 1500"><rect width="2000" height="1500" fill="#f8f8f8"></rect><g transform="matrix(0.75,0,0,0.75,249.090909090909,477.25952788155723)"><svg viewBox="0 0 396 144" data-background-color="#f8f8f8" preserveAspectRatio="xMidYMid meet" height="727" width="2000" xmlns="http://www.w3.org/2000/svg" xmlns:xlink="http://www.w3.org/1999/xlink"><g id="tight-bounds" transform="matrix(1,0,0,1,0.2400000000000091,0.030496075297122616)"><svg viewBox="0 0 395.52 143.93900784940575" height="143.93900784940575" width="395.52"><g><svg viewBox="0 0 397.4975999999999 144.65870288865275" height="143.93900784940575" width="395.52"><g><rect width="397.4975999999999" height="2.6202343777976616" x="0" y="81.30853446859953" fill="#000000" opacity="1" stroke-width="0" stroke="transparent" fill-opacity="1" class="rect-qz-0" data-fill-palette-color="secondary" rx="1%" id="qz-0" data-palette-color="#000000"></rect></g><g transform="matrix(1,0,0,1,0.9887999999999693,90.78802114429683)"><svg viewBox="0 0 395.52 53.87068174435592" height="53.87068174435592" width="395.52"><g id="textblocktransform"><svg viewBox="0 0 395.52 53.87068174435592" height="53.87068174435592" width="395.52" id="textblock"><g><svg viewBox="0 0 395.52 29.055271598551474" height="29.055271598551474" width="395.52"><g transform="matrix(1,0,0,1,0,0)"><svg width="395.52" viewBox="2.7 -44.15 777.5899999999999 56.8" height="29.055271598551474" data-palette-color="#61777f"><path d="M25.8-40.3Q28.8-40.3 32.8-39.55 36.8-38.8 38.65-37.95L38.65-37.95 38.65-27.05 33.1-27.05Q29.35-34.05 22.9-34.05L22.9-34.05Q20.3-34.05 18.15-32.38 16-30.7 14.75-27.75 13.5-24.8 13.5-21.15L13.5-21.15Q13.5-17 14.75-13.58 16-10.15 18.57-8.13 21.15-6.1 24.95-6.1L24.95-6.1Q29.6-6.1 38.15-10.7L38.15-10.7 40.3-7.25 31.1-0.1Q28.8 0.55 26.7 0.78 24.6 1 22.15 1L22.15 1Q16.45 1 12.03-1.55 7.6-4.1 5.15-8.58 2.7-13.05 2.7-18.75L2.7-18.75Q2.7-24.6 6.35-29.58 10-34.55 15.45-37.43 20.9-40.3 25.8-40.3L25.8-40.3ZM64.75-19.6Q67.25-19.6 68.67-21.45 70.1-23.3 70.1-26.55L70.1-26.55Q70.1-30.3 68.3-32.65 66.5-35 63-35L63-35Q60.8-35 58.9-33.65L58.9-33.65 58.9-5.45 67.85-3.65 66.05 0 44.3 0 44.3-3.2 49-6.9 49-34 43.4-35.7 45.2-39.3 54.25-39.3Q58.6-39.3 62.8-39.6L62.8-39.6Q65.8-39.8 67.3-39.8L67.3-39.8Q71.3-39.8 74.4-38.27 77.5-36.75 79.2-34.08 80.9-31.4 80.9-28.1L80.9-28.1Q80.9-24.5 78.07-21.33 75.25-18.15 70.97-16.32 66.7-14.5 62.65-14.7L62.65-14.7 60.55-16 62.35-19.6 64.75-19.6ZM106.14-39.8Q111.89-39.8 116.34-37.33 120.8-34.85 123.22-30.45 125.65-26.05 125.65-20.5L125.65-20.5Q125.65-14.8 122-9.98 118.34-5.15 112.92-2.33 107.5 0.5 102.59 0.5L102.59 0.5Q100.39 0.5 98.14 0.25L98.14 0.25Q94.39 0 92.39 0L92.39 0 84.05 0 84.05-3.2 88.75-6.9 88.75-34 83.14-35.7 84.94-39.3 92.34-39.3Q96.94-39.3 101.34-39.6L101.34-39.6Q104.64-39.8 106.14-39.8L106.14-39.8ZM104.05-4.35Q107.05-4.35 109.55-6.15 112.05-7.95 113.47-11.08 114.9-14.2 114.9-18.1L114.9-18.1Q114.9-22.75 113.52-26.58 112.14-30.4 109.32-32.68 106.5-34.95 102.3-34.95L102.3-34.95Q100.34-34.95 98.64-33.95L98.64-33.95 98.64-5.25Q100.94-4.4 104-4.4L104-4.4 104.05-4.35ZM160.64-27.55Q163.09-27.55 166.29-26.98 169.49-26.4 170.99-25.7L170.99-25.7 170.99-15.95 167.44-15.95Q165.59-18.45 163.24-19.88 160.89-21.3 158.29-21.3L158.29-21.3Q156.64-21.3 155.69-19.68 154.74-18.05 154.74-15.05L154.74-15.05Q154.74-11.25 156.36-8.72 157.99-6.2 160.99-6.2L160.99-6.2Q164.34-6.2 170.74-9.05L170.74-9.05 172.24-5.95 165.24-0.35Q162.24 0.5 158.09 0.5L158.09 0.5Q154.34 0.5 151.34-1.23 148.34-2.95 146.66-5.95 144.99-8.95 144.99-12.65L144.99-12.65Q144.99-16.65 147.41-20.08 149.84-23.5 153.51-25.53 157.19-27.55 160.64-27.55L160.64-27.55ZM193.94-27.55Q199.34-27.55 202.31-23.48 205.29-19.4 205.19-12L205.19-12 187.34-12Q187.89-9.35 189.39-7.78 190.89-6.2 193.29-6.2L193.29-6.2Q196.84-6.2 203.64-9.25L203.64-9.25 205.14-6.15 197.94-0.35Q194.79 0.5 190.39 0.5L190.39 0.5Q186.64 0.5 183.64-1.23 180.64-2.95 178.96-5.95 177.29-8.95 177.29-12.65L177.29-12.65Q177.29-16.65 179.89-20.08 182.49-23.5 186.39-25.53 190.29-27.55 193.94-27.55L193.94-27.55ZM191.24-21.3Q189.19-21.3 188.16-19.93 187.14-18.55 187.04-15.7L187.04-15.7 195.94-15.7Q195.64-18.55 194.59-19.93 193.54-21.3 191.24-21.3L191.24-21.3ZM226.69-19.85Q225.04-19.85 223.54-18.65L223.54-18.65 223.54-5.65 231.34-3.7 229.54-0.05 209.84-0.05 209.84-3.25 214.29-7.05 214.29-17.55 209.84-20.4 209.84-23.6 220.84-28 222.74-22.6 227.14-27.15Q228.19-27.55 229.49-27.55L229.49-27.55Q232.44-27.55 234.46-26.28 236.49-25 237.29-22.75L237.29-22.75 232.09-16.2 228.54-16.2Q228.49-18.2 228.06-19.03 227.64-19.85 226.69-19.85L226.69-19.85ZM261.73-3.9L256.68 0.1Q254.78 0.5 252.28 0.5L252.28 0.5Q247.23 0.5 244.93-1.68 242.63-3.85 242.63-8.4L242.63-8.4 242.63-21.85 237.23-21.85 237.23-24.75 248.38-36.6 251.88-36.6 251.88-25.55 260.88-25.55 260.88-21.85 251.88-21.85 251.88-9Q251.88-5.8 255.78-5.8L255.78-5.8Q256.83-5.8 257.81-6.05 258.78-6.3 260.23-7L260.23-7 261.73-3.9ZM282.43-3.65L280.63 0 264.23 0 264.23-3.2 268.68-7 268.68-17.65 264.23-20.6 264.23-23.75 274.38-28 277.93-28 277.93-5.1 282.43-3.65ZM273.28-43.1Q275.63-43.1 277.11-41.63 278.58-40.15 278.58-38L278.58-38Q278.58-36.45 277.51-35.13 276.43-33.8 274.81-33 273.18-32.2 271.68-32.2L271.68-32.2Q269.38-32.2 267.86-33.68 266.33-35.15 266.33-37.3L266.33-37.3Q266.33-38.85 267.41-40.18 268.48-41.5 270.13-42.3 271.78-43.1 273.28-43.1L273.28-43.1ZM304.43-44.15Q306.33-44.15 308.73-43.63 311.13-43.1 312.18-42.5L312.18-42.5 312.18-33.15 308.68-33.15Q307.43-35.45 305.68-36.77 303.93-38.1 302.13-38.1L302.13-38.1Q300.48-38.1 299.53-36.7 298.58-35.3 298.58-32.65L298.58-32.65 298.58-25.55 306.78-25.55 306.78-21.85 298.58-21.85 298.58-5.6 306.38-3.65 304.58 0 284.88 0 284.88-3.2 289.33-7 289.33-21.85 284.18-21.85 284.18-25.55 289.33-25.55 289.33-29.25Q289.33-33.2 291.7-36.65 294.08-40.1 297.63-42.13 301.18-44.15 304.43-44.15L304.43-44.15ZM328.22-3.65L326.43 0 310.02 0 310.02-3.2 314.47-7 314.47-17.65 310.02-20.6 310.02-23.75 320.18-28 323.72-28 323.72-5.1 328.22-3.65ZM319.07-43.1Q321.43-43.1 322.9-41.63 324.38-40.15 324.38-38L324.38-38Q324.38-36.45 323.3-35.13 322.22-33.8 320.6-33 318.97-32.2 317.47-32.2L317.47-32.2Q315.18-32.2 313.65-33.68 312.13-35.15 312.13-37.3L312.13-37.3Q312.13-38.85 313.2-40.18 314.27-41.5 315.93-42.3 317.57-43.1 319.07-43.1L319.07-43.1ZM347.07-27.55Q349.52-27.55 352.72-26.98 355.92-26.4 357.42-25.7L357.42-25.7 357.42-15.95 353.87-15.95Q352.02-18.45 349.67-19.88 347.32-21.3 344.72-21.3L344.72-21.3Q343.07-21.3 342.12-19.68 341.17-18.05 341.17-15.05L341.17-15.05Q341.17-11.25 342.8-8.72 344.42-6.2 347.42-6.2L347.42-6.2Q350.77-6.2 357.17-9.05L357.17-9.05 358.67-5.95 351.67-0.35Q348.67 0.5 344.52 0.5L344.52 0.5Q340.77 0.5 337.77-1.23 334.77-2.95 333.1-5.95 331.42-8.95 331.42-12.65L331.42-12.65Q331.42-16.65 333.85-20.08 336.27-23.5 339.95-25.53 343.62-27.55 347.07-27.55L347.07-27.55ZM394.47-3.65L392.67 0 380.72 0 380.72-4.35 375.07 0.1Q374.07 0.5 372.57 0.5L372.57 0.5Q367.62 0.5 365.42-1.93 363.22-4.35 363.22-7.75L363.22-7.75Q363.22-9.7 364.42-11.6 365.62-13.5 367.82-15.1L367.82-15.1 380.72-15.1 380.72-15.3Q380.72-17.9 379.29-19.18 377.87-20.45 375.52-20.45L375.52-20.45Q372.07-20.45 365.87-18.05L365.87-18.05 364.37-21.15 371.27-26.7Q373.92-27.55 377.52-27.55L377.52-27.55Q383.42-27.55 386.69-24.9 389.97-22.25 389.97-17.2L389.97-17.2 389.97-5.4 394.47-3.65ZM375.42-7Q377.77-7 380.72-8.9L380.72-8.9 380.72-11.45 372.87-11.45Q372.32-10.55 372.32-9.5L372.32-9.5Q372.32-8.35 373.14-7.68 373.97-7 375.42-7L375.42-7ZM419.57-3.9L414.52 0.1Q412.62 0.5 410.12 0.5L410.12 0.5Q405.07 0.5 402.77-1.68 400.47-3.85 400.47-8.4L400.47-8.4 400.47-21.85 395.07-21.85 395.07-24.75 406.22-36.6 409.72-36.6 409.72-25.55 418.72-25.55 418.72-21.85 409.72-21.85 409.72-9Q409.72-5.8 413.62-5.8L413.62-5.8Q414.67-5.8 415.64-6.05 416.62-6.3 418.07-7L418.07-7 419.57-3.9ZM440.26-3.65L438.46 0 422.06 0 422.06-3.2 426.51-7 426.51-17.65 422.06-20.6 422.06-23.75 432.21-28 435.76-28 435.76-5.1 440.26-3.65ZM431.11-43.1Q433.46-43.1 434.94-41.63 436.41-40.15 436.41-38L436.41-38Q436.41-36.45 435.34-35.13 434.26-33.8 432.64-33 431.01-32.2 429.51-32.2L429.51-32.2Q427.21-32.2 425.69-33.68 424.16-35.15 424.16-37.3L424.16-37.3Q424.16-38.85 425.24-40.18 426.31-41.5 427.96-42.3 429.61-43.1 431.11-43.1L431.11-43.1ZM460.11-27.55Q463.91-27.55 466.91-25.83 469.91-24.1 471.59-21.08 473.26-18.05 473.26-14.4L473.26-14.4Q473.26-10.45 470.66-7 468.06-3.55 464.14-1.53 460.21 0.5 456.56 0.5L456.56 0.5Q452.81 0.5 449.81-1.23 446.81-2.95 445.14-5.95 443.46-8.95 443.46-12.65L443.46-12.65Q443.46-16.65 446.06-20.08 448.66-23.5 452.56-25.53 456.46-27.55 460.11-27.55L460.11-27.55ZM457.21-21.3Q455.41-21.3 454.44-19.73 453.46-18.15 453.46-15.05L453.46-15.05Q453.46-11 455.04-8.38 456.61-5.75 459.46-5.75L459.46-5.75Q461.31-5.75 462.29-7.35 463.26-8.95 463.26-12.05L463.26-12.05Q463.26-16.1 461.69-18.7 460.11-21.3 457.21-21.3L457.21-21.3ZM513.11-3.7L511.31-0.05 499.36-0.05 499.36-15.75Q499.36-18 498.68-18.95 498.01-19.9 496.36-19.9L496.36-19.9Q494.01-19.9 491.61-18.55L491.61-18.55 491.61-5.15 496.11-3.7 494.31-0.05 477.91-0.05 477.91-3.25 482.36-7.05 482.36-17.55 477.91-20.4 477.91-23.6 488.91-28 490.91-22.4 496.81-27.15Q498.16-27.55 499.96-27.55L499.96-27.55Q503.91-27.55 506.26-25.48 508.61-23.4 508.61-19.85L508.61-19.85 508.61-5.1 513.11-3.7ZM546.5 0.45Q544.65 0.45 543.15-0.45L543.15-0.45 543.15 7.05 550.95 9.05 549.15 12.65 529.45 12.65 529.45 9.5 533.9 5.65 533.9-17.55 529.45-20.4 529.45-23.6 540.45-28 542.45-22.4 548.4-27.15Q550-27.55 552.05-27.55L552.05-27.55Q555.25-27.55 557.8-25.83 560.35-24.1 561.78-21.08 563.2-18.05 563.2-14.4L563.2-14.4Q563.2-10.45 560.6-7 558-3.55 554.08-1.53 550.15 0.5 546.5 0.5L546.5 0.5 546.5 0.45ZM548.8-20.05Q545.75-20.05 543.15-18.55L543.15-18.55 543.15-10.95Q543.15-8.75 544.78-7.28 546.4-5.8 549.4-5.8L549.4-5.8Q553.45-5.8 553.45-12.1L553.45-12.1Q553.45-15.6 552.28-17.82 551.1-20.05 548.8-20.05L548.8-20.05ZM584.7-19.85Q583.05-19.85 581.55-18.65L581.55-18.65 581.55-5.65 589.35-3.7 587.55-0.05 567.85-0.05 567.85-3.25 572.3-7.05 572.3-17.55 567.85-20.4 567.85-23.6 578.85-28 580.75-22.6 585.15-27.15Q586.2-27.55 587.5-27.55L587.5-27.55Q590.45-27.55 592.48-26.28 594.5-25 595.3-22.75L595.3-22.75 590.1-16.2 586.55-16.2Q586.5-18.2 586.08-19.03 585.65-19.85 584.7-19.85L584.7-19.85ZM613.65-27.55Q617.45-27.55 620.45-25.83 623.45-24.1 625.12-21.08 626.8-18.05 626.8-14.4L626.8-14.4Q626.8-10.45 624.2-7 621.6-3.55 617.67-1.53 613.75 0.5 610.1 0.5L610.1 0.5Q606.35 0.5 603.35-1.23 600.35-2.95 598.67-5.95 597-8.95 597-12.65L597-12.65Q597-16.65 599.6-20.08 602.2-23.5 606.1-25.53 610-27.55 613.65-27.55L613.65-27.55ZM610.75-21.3Q608.95-21.3 607.97-19.73 607-18.15 607-15.05L607-15.05Q607-11 608.57-8.38 610.15-5.75 613-5.75L613-5.75Q614.85-5.75 615.82-7.35 616.8-8.95 616.8-12.05L616.8-12.05Q616.8-16.1 615.22-18.7 613.65-21.3 610.75-21.3L610.75-21.3ZM661.35-27.05L661.35-23.85 648.45 0 641.4 0 634.15-17.7 629.15-20.6 629.15-23.8 640.95-28 642.85-20.45 648.15-7.7 653.85-18.6 646.55-23.4 648.35-27.05 661.35-27.05ZM680.19-3.65L678.39 0 661.99 0 661.99-3.2 666.44-7 666.44-17.65 661.99-20.6 661.99-23.75 672.14-28 675.69-28 675.69-5.1 680.19-3.65ZM671.04-43.1Q673.39-43.1 674.87-41.63 676.34-40.15 676.34-38L676.34-38Q676.34-36.45 675.27-35.13 674.19-33.8 672.57-33 670.94-32.2 669.44-32.2L669.44-32.2Q667.14-32.2 665.62-33.68 664.09-35.15 664.09-37.3L664.09-37.3Q664.09-38.85 665.17-40.18 666.24-41.5 667.89-42.3 669.54-43.1 671.04-43.1L671.04-43.1ZM717.14-3.6L715.34 0.05 703.39 0.05 703.39-3.7 698.59 0.15Q696.99 0.55 694.89 0.55L694.89 0.55Q691.59 0.55 688.97-1.18 686.34-2.9 684.87-5.93 683.39-8.95 683.39-12.6L683.39-12.6Q683.39-16.6 685.99-20.03 688.59-23.45 692.49-25.48 696.39-27.5 700.04-27.5L700.04-27.5Q701.84-27.5 703.39-26.65L703.39-26.65 703.39-33.3 698.94-36.25 698.94-39.45 709.09-43.65 712.64-43.65 712.64-5.1 717.14-3.6ZM698.09-6.95Q700.99-6.95 703.39-8.15L703.39-8.15 703.39-17.15Q703.09-18.95 701.49-20.1 699.89-21.25 697.14-21.25L697.14-21.25Q693.14-21.25 693.14-14.95L693.14-14.95Q693.14-11.45 694.42-9.18 695.69-6.9 698.14-6.9L698.14-6.9 698.09-6.95ZM736.94-27.55Q742.34-27.55 745.31-23.48 748.29-19.4 748.19-12L748.19-12 730.34-12Q730.89-9.35 732.39-7.78 733.89-6.2 736.29-6.2L736.29-6.2Q739.84-6.2 746.64-9.25L746.64-9.25 748.14-6.15 740.94-0.35Q737.79 0.5 733.39 0.5L733.39 0.5Q729.64 0.5 726.64-1.23 723.64-2.95 721.96-5.95 720.29-8.95 720.29-12.65L720.29-12.65Q720.29-16.65 722.89-20.08 725.49-23.5 729.39-25.53 733.29-27.55 736.94-27.55L736.94-27.55ZM734.24-21.3Q732.19-21.3 731.16-19.93 730.14-18.55 730.04-15.7L730.04-15.7 738.94-15.7Q738.64-18.55 737.59-19.93 736.54-21.3 734.24-21.3L734.24-21.3ZM769.69-19.85Q768.04-19.85 766.54-18.65L766.54-18.65 766.54-5.65 774.34-3.7 772.54-0.05 752.84-0.05 752.84-3.25 757.29-7.05 757.29-17.55 752.84-20.4 752.84-23.6 763.84-28 765.74-22.6 770.14-27.15Q771.19-27.55 772.49-27.55L772.49-27.55Q775.44-27.55 777.46-26.28 779.49-25 780.29-22.75L780.29-22.75 775.09-16.2 771.54-16.2Q771.49-18.2 771.06-19.03 770.64-19.85 769.69-19.85L769.69-19.85Z" opacity="1" transform="matrix(1,0,0,1,0,0)" fill="#61777f" class="wordmark-text-0" data-fill-palette-color="primary" id="text-0"></path></svg></g></svg></g><g transform="matrix(1,0,0,1,0,35.914523896451115)"><svg viewBox="0 0 395.52 17.956157847904812" height="17.956157847904812" width="395.52"><g transform="matrix(1,0,0,1,0,0)"><svg width="395.52" viewBox="1.8680556111249997 -38.15 1138.801944388875 51.7" height="17.956157847904812" data-palette-color="#000000"><path d="M20.4-35.8L20.4-35.8Q22.35-35.8 24.63-35.18 26.9-34.55 28.85-33.35L28.85-33.35 28.9-33.35 28.85-35.45 32.7-35.45 32.1-23.8 28.8-23.8Q28.35-27.95 26.35-30.18 24.35-32.4 20.85-32.4L20.85-32.4Q18.25-32.4 16.23-31.2 14.2-30 12.8-27.93 11.4-25.85 10.63-23.28 9.85-20.7 9.7-18L9.7-18Q9.5-13.7 10.58-10.33 11.65-6.95 13.93-5 16.2-3.05 19.55-3L19.55-3Q22.55-2.95 25.8-4.42 29.05-5.9 31.6-9.2L31.6-9.2 33.55-7.2Q30.95-3.85 28.18-2.13 25.4-0.4 22.8 0.2 20.2 0.8 18.1 0.8L18.1 0.8Q14.25 0.8 11.18-0.58 8.1-1.95 5.95-4.38 3.8-6.8 2.75-10.03 1.7-13.25 1.9-17L1.9-17Q2.1-20.4 3.38-23.75 4.65-27.1 6.98-29.83 9.3-32.55 12.68-34.18 16.05-35.8 20.4-35.8ZM77.92-25.55L77.92-25.55Q80.12-25.55 81.82-24.9 83.52-24.25 84.47-22.85 85.42-21.45 85.42-19.25L85.42-19.25Q85.42-17.2 84.19-15.78 82.97-14.35 80.99-13.45 79.02-12.55 76.67-11.98 74.32-11.4 72.12-11.1L72.12-11.1Q72.12-8.25 72.79-6.73 73.47-5.2 74.52-4.63 75.57-4.05 76.62-4.05L76.62-4.05Q77.47-4.05 78.64-4.38 79.82-4.7 81.02-5.75 82.22-6.8 83.12-8.85L83.12-8.85 85.92-7.5Q84.52-4.25 82.77-2.5 81.02-0.75 79.12-0.1 77.22 0.55 75.27 0.55L75.27 0.55Q70.67 0.6 67.97-2.1 65.27-4.8 65.27-10.35L65.27-10.35Q65.27-12.75 66.02-15.4 66.77-18.05 68.29-20.35 69.82-22.65 72.22-24.1 74.62-25.55 77.92-25.55ZM77.37-22.25L77.37-22.25Q75.67-22.25 74.62-21.05 73.57-19.85 73.02-18.03 72.47-16.2 72.27-14.35L72.27-14.35Q74.97-14.85 76.57-15.7 78.17-16.55 78.89-17.65 79.62-18.75 79.57-19.95L79.57-19.95Q79.52-21.2 78.82-21.73 78.12-22.25 77.37-22.25ZM127.99 0L121.44 0Q121.34-1.05 121.31-1.48 121.29-1.9 121.29-2.4L121.29-2.4Q121.29-3.45 121.41-4.93 121.54-6.4 121.74-8.1 121.94-9.8 122.14-11.45L122.14-11.45Q122.39-13.25 122.61-14.88 122.84-16.5 122.96-17.75 123.09-19 123.09-19.6L123.09-19.6Q123.09-20.45 122.86-20.68 122.64-20.9 122.39-20.9L122.39-20.9Q121.84-20.9 121.24-20.05 120.64-19.2 119.99-16.95L119.99-16.95 117.24-17.75Q117.49-18.8 117.94-20.15 118.39-21.5 119.19-22.73 119.99-23.95 121.14-24.75 122.29-25.55 123.94-25.55L123.94-25.55Q125.54-25.55 126.84-24.6 128.14-23.65 128.14-21L128.14-21Q128.14-20.2 128.01-19.1 127.89-18 127.64-16.55L127.64-16.55 127.69-16.55Q129.04-20.35 130.46-22.28 131.89-24.2 133.29-24.88 134.69-25.55 135.89-25.55L135.89-25.55Q137.79-25.55 138.94-24.53 140.09-23.5 140.09-21.75L140.09-21.75Q140.09-20.45 139.16-19.4 138.24-18.35 136.74-18.35L136.74-18.35Q135.64-18.35 134.79-19.05 133.94-19.75 133.99-20.95L133.99-20.95Q133.14-21.05 132.26-19.98 131.39-18.9 130.61-17.03 129.84-15.15 129.21-12.85 128.59-10.55 128.21-8.15 127.84-5.75 127.84-3.6L127.84-3.6Q127.84-2.95 127.89-1.78 127.94-0.6 127.99 0L127.99 0ZM178.85-32.55L182.2-32.55 181.2-25 187.45-25 187.15-21.55 180.9-21.45Q180.7-19.65 180.45-17.57 180.2-15.5 180.03-13.53 179.85-11.55 179.73-9.98 179.6-8.4 179.6-7.55L179.6-7.55Q179.6-6.9 179.75-6.13 179.9-5.35 180.4-4.8 180.9-4.25 182-4.25L182-4.25Q182.4-4.25 183.18-4.48 183.95-4.7 184.85-5.35 185.75-6 186.5-7.4L186.5-7.4 189.05-5.8Q187.35-2.6 184.9-1.03 182.45 0.55 179.65 0.55L179.65 0.55Q176.9 0.55 175.53-0.6 174.15-1.75 173.7-3.63 173.25-5.5 173.3-7.55L173.3-7.55Q173.4-9.25 173.55-11.58 173.7-13.9 173.95-16.48 174.2-19.05 174.45-21.4L174.45-21.4 170.45-21.35 170.9-25Q174.6-25 176.38-26.95 178.15-28.9 178.85-32.55L178.85-32.55ZM226.52-25.55L226.52-25.55Q229.12-25.55 230.15-23.98 231.17-22.4 231.17-19.75L231.17-19.75Q231.17-18.55 230.92-16.5 230.67-14.45 230.37-12.2 230.07-9.95 229.82-8.1 229.57-6.25 229.57-5.4L229.57-5.4Q229.57-4.6 229.82-4.35 230.07-4.1 230.32-4.1L230.32-4.1Q230.92-4.1 231.52-4.95 232.12-5.8 232.77-8.05L232.77-8.05 235.47-7.25Q235.27-6.2 234.7-4.85 234.12-3.5 233.17-2.27 232.22-1.05 230.9-0.25 229.57 0.55 227.87 0.55L227.87 0.55Q225.12 0.55 224.1-0.95 223.07-2.45 223.07-5.1L223.07-5.1Q223.07-6.55 223.32-8.55 223.57-10.55 223.9-12.65 224.22-14.75 224.47-16.57 224.72-18.4 224.72-19.6L224.72-19.6Q224.72-20.45 224.47-20.68 224.22-20.9 223.92-20.9L223.92-20.9Q223.37-20.9 222.77-20.05 222.17-19.2 221.52-16.95L221.52-16.95 218.82-17.75Q219.02-18.8 219.62-20.15 220.22-21.5 221.2-22.73 222.17-23.95 223.5-24.75 224.82-25.55 226.52-25.55ZM228.27-38.15L228.27-38.15Q229.92-38.15 230.95-36.95 231.97-35.75 231.87-34L231.87-34Q231.82-32.3 230.72-31.13 229.62-29.95 227.97-29.95L227.97-29.95Q226.27-29.95 225.25-31.13 224.22-32.3 224.27-34L224.27-34Q224.37-35.75 225.57-36.95 226.77-38.15 228.27-38.15ZM281.79-38L281.79-38Q284.04-38 285.26-36.95 286.49-35.9 286.49-34.3L286.49-34.3Q286.49-33.75 286.19-33.02 285.89-32.3 285.21-31.78 284.54-31.25 283.39-31.25L283.39-31.25Q282.29-31.3 281.51-32.18 280.74-33.05 280.94-34.35L280.94-34.35Q280.89-34.4 280.71-34.43 280.54-34.45 280.29-34.45L280.29-34.45Q279.44-34.45 278.89-33.55 278.34-32.65 278.01-31.2 277.69-29.75 277.51-28.1 277.34-26.45 277.19-25L277.19-25 283.64-25 283.29-21.55 276.99-21.45Q276.84-19.3 276.64-16.43 276.44-13.55 276.19-10.43 275.94-7.3 275.69-4.42 275.44-1.55 275.19 0.55L275.19 0.55Q274.94 2.85 274.36 4.85 273.79 6.85 272.94 8.45 272.09 10.05 270.84 11.2 269.59 12.35 267.99 12.95 266.39 13.55 264.34 13.55L264.34 13.55Q262.04 13.55 260.81 12.58 259.59 11.6 259.59 9.95L259.59 9.95Q259.59 9.35 259.89 8.6 260.19 7.85 260.89 7.3 261.59 6.75 262.69 6.8L262.69 6.8Q263.84 6.85 264.59 7.73 265.34 8.6 265.14 9.9L265.14 9.9Q265.44 10 265.79 10L265.79 10Q266.64 10 267.19 9.1 267.74 8.2 268.06 6.75 268.39 5.3 268.56 3.65 268.74 2 268.89 0.55L268.89 0.55Q269.09-1.6 269.29-4.48 269.49-7.35 269.71-10.48 269.94-13.6 270.16-16.45 270.39-19.3 270.54-21.4L270.54-21.4 266.54-21.35 266.99-25 270.99-25Q271.44-28.85 272.66-31.78 273.89-34.7 276.14-36.35 278.39-38 281.79-38ZM319.21 13.55L319.21 13.55Q316.91 13.55 315.68 12.45 314.46 11.35 314.46 9.65L314.46 9.65Q314.46 8.05 315.48 7.1 316.51 6.15 317.66 6.15L317.66 6.15Q320.31 6.15 320.71 8.85L320.71 8.85Q320.81 8.9 320.96 8.9 321.11 8.9 321.21 8.9L321.21 8.9Q322.06 8.9 322.98 8.25 323.91 7.6 324.76 6.65 325.61 5.7 326.28 4.73 326.96 3.75 327.26 3.05L327.26 3.05Q326.91 0.65 326.11-2.13 325.31-4.9 324.28-7.78 323.26-10.65 322.16-13.33 321.06-16 320.11-18.2L320.11-18.2Q319.76-19 319.18-19.95 318.61-20.9 317.76-20.9L317.76-20.9Q317.11-20.9 316.43-20.2 315.76-19.5 315.51-17.15L315.51-17.15 312.71-17.55Q312.81-18.65 313.23-20 313.66-21.35 314.53-22.63 315.41-23.9 316.78-24.73 318.16-25.55 320.16-25.55L320.16-25.55Q321.81-25.55 322.98-24.78 324.16-24 324.98-22.8 325.81-21.6 326.31-20.35L326.31-20.35Q327.01-18.65 328.01-15.95 329.01-13.25 329.93-10.08 330.86-6.9 331.41-3.65L331.41-3.65 331.46-3.65Q332.51-5.95 333.21-8.1 333.91-10.25 334.33-12.2 334.76-14.15 334.86-15.8L334.86-15.8Q334.91-16.35 334.86-17.53 334.81-18.7 334.26-19.3L334.26-19.3Q334.06-19.25 333.91-19.25 333.76-19.25 333.56-19.25L333.56-19.25Q332.31-19.25 331.41-20.1 330.51-20.95 330.51-22.15L330.51-22.15Q330.51-23.9 331.61-24.73 332.71-25.55 333.96-25.55L333.96-25.55Q335.81-25.55 336.93-24.5 338.06-23.45 338.56-21.85 339.06-20.25 339.06-18.55L339.06-18.55Q339.06-16.4 338.36-13.35 337.66-10.3 336.38-6.88 335.11-3.45 333.41-0.1L333.41-0.1Q331.51 3.55 329.21 6.68 326.91 9.8 324.36 11.68 321.81 13.55 319.21 13.55ZM375.67-6.85L375.67-6.85Q378.02-6.9 379.05-5.38 380.07-3.85 379.97-1.6L379.97-1.6Q379.92 0 379.32 1.8 378.72 3.6 377.6 5.5 376.47 7.4 374.82 9.35L374.82 9.35 372.97 7.95Q373.52 7.25 374.27 5.95 375.02 4.65 375.62 3.08 376.22 1.5 376.22 0.05L376.22 0.05Q375.87 0.15 375.65 0.18 375.42 0.2 375.17 0.2L375.17 0.2Q373.82 0.2 372.82-0.6 371.82-1.4 371.87-3.1L371.87-3.1Q371.97-4.6 373.02-5.73 374.07-6.85 375.67-6.85ZM473.01 0.8L473.01 0.8Q467.61 0.8 463.91-1.58 460.21-3.95 458.43-8 456.66-12.05 456.91-17L456.91-17Q457.06-20.4 458.31-23.75 459.56-27.1 461.88-29.83 464.21-32.55 467.56-34.18 470.91-35.8 475.26-35.8L475.26-35.8Q476.56-35.8 478.26-35.52 479.96-35.25 481.66-34.7 483.36-34.15 484.61-33.35L484.61-33.35 484.61-35.45 488.46-35.45 487.86-23.8 484.56-23.8Q484.26-26.6 483.06-28.45 481.86-30.3 479.98-31.25 478.11-32.2 475.76-32.2L475.76-32.2Q473.16-32.2 471.13-31 469.11-29.8 467.73-27.8 466.36-25.8 465.58-23.25 464.81-20.7 464.66-18L464.66-18Q464.46-13.7 465.48-10.35 466.51-7 468.78-5.08 471.06-3.15 474.46-3.15L474.46-3.15Q475.41-3.15 476.76-3.3 478.11-3.45 479.43-3.75 480.76-4.05 481.71-4.5L481.71-4.5 481.96-9.15Q482.06-10.5 482.16-11.75 482.26-13 482.36-13.65L482.36-13.65Q481.56-13.6 480.36-13.58 479.16-13.55 478.61-13.5L478.61-13.5 478.81-17.35 491.96-17.35 491.81-14.05Q490.96-14 490.33-13.85 489.71-13.7 489.26-13.28 488.81-12.85 488.58-12 488.36-11.15 488.26-9.7L488.26-9.7 487.86-1.7 486.61-1.7Q485.31-1.7 483.98-1.38 482.66-1.05 481.21-0.6L481.21-0.6Q479.51-0.1 477.51 0.35 475.51 0.8 473.01 0.8ZM533.33 0L526.78 0Q526.68-1.05 526.65-1.48 526.63-1.9 526.63-2.4L526.63-2.4Q526.63-3.45 526.75-4.93 526.88-6.4 527.08-8.1 527.28-9.8 527.48-11.45L527.48-11.45Q527.73-13.25 527.95-14.88 528.18-16.5 528.3-17.75 528.43-19 528.43-19.6L528.43-19.6Q528.43-20.45 528.2-20.68 527.98-20.9 527.73-20.9L527.73-20.9Q527.18-20.9 526.58-20.05 525.98-19.2 525.33-16.95L525.33-16.95 522.58-17.75Q522.83-18.8 523.28-20.15 523.73-21.5 524.53-22.73 525.33-23.95 526.48-24.75 527.63-25.55 529.28-25.55L529.28-25.55Q530.88-25.55 532.18-24.6 533.48-23.65 533.48-21L533.48-21Q533.48-20.2 533.35-19.1 533.23-18 532.98-16.55L532.98-16.55 533.03-16.55Q534.38-20.35 535.8-22.28 537.23-24.2 538.63-24.88 540.03-25.55 541.23-25.55L541.23-25.55Q543.13-25.55 544.28-24.53 545.43-23.5 545.43-21.75L545.43-21.75Q545.43-20.45 544.5-19.4 543.58-18.35 542.08-18.35L542.08-18.35Q540.98-18.35 540.13-19.05 539.28-19.75 539.33-20.95L539.33-20.95Q538.48-21.05 537.6-19.98 536.73-18.9 535.95-17.03 535.18-15.15 534.55-12.85 533.93-10.55 533.55-8.15 533.18-5.75 533.18-3.6L533.18-3.6Q533.18-2.95 533.23-1.78 533.28-0.6 533.33 0L533.33 0ZM588.19-25.55L588.19-25.55Q590.99-25.55 593.27-24.25 595.54-22.95 596.89-20.45 598.24-17.95 598.24-14.4L598.24-14.4Q598.24-10.45 596.72-7.03 595.19-3.6 592.39-1.53 589.59 0.55 585.69 0.55L585.69 0.55Q582.34 0.55 580.09-0.98 577.84-2.5 576.74-5.1 575.64-7.7 575.64-10.8L575.64-10.8Q575.64-14.8 577.17-18.15 578.69-21.5 581.52-23.53 584.34-25.55 588.19-25.55ZM587.44-22.25L587.44-22.25Q585.94-22.3 584.82-20.93 583.69-19.55 583.07-17.25 582.44-14.95 582.44-12.2L582.44-12.2Q582.44-10.7 582.62-9.05 582.79-7.4 583.27-5.98 583.74-4.55 584.52-3.65 585.29-2.75 586.49-2.75L586.49-2.75Q587.79-2.75 588.69-3.75 589.59-4.75 590.17-6.33 590.74-7.9 591.02-9.65 591.29-11.4 591.34-12.95L591.34-12.95Q591.39-14.3 591.24-15.9 591.09-17.5 590.69-18.95 590.29-20.4 589.49-21.33 588.69-22.25 587.44-22.25ZM661.11-25.55L661.11-25.55Q662.71-25.55 663.94-24.83 665.16-24.1 665.99-22.85 666.81-21.6 667.24-19.95 667.66-18.3 667.66-16.45L667.66-16.45Q667.66-13.8 666.61-10.85 665.56-7.9 663.66-5.3 661.76-2.7 659.21-1.07 656.66 0.55 653.61 0.55L653.61 0.55Q651.46 0.55 650.26-0.45 649.06-1.45 648.69-3.13 648.31-4.8 648.56-6.75L648.56-6.75Q647.86-4.05 646.54-2.45 645.21-0.85 643.56-0.15 641.91 0.55 640.21 0.55L640.21 0.55Q637.01 0.55 635.56-1.53 634.11-3.6 634.11-7.25L634.11-7.25Q634.11-8.55 634.29-10.28 634.46-12 634.69-13.8 634.91-15.6 635.09-17.15 635.26-18.7 635.26-19.6L635.26-19.6Q635.26-20.45 634.99-20.68 634.71-20.9 634.46-20.9L634.46-20.9Q633.86-20.9 633.26-20.05 632.66-19.2 632.01-16.95L632.01-16.95 629.31-17.75Q629.51-18.8 630.09-20.15 630.66-21.5 631.61-22.73 632.56-23.95 633.86-24.75 635.16-25.55 636.86-25.55L636.86-25.55Q638.81-25.55 639.86-24.75 640.91-23.95 641.31-22.65 641.71-21.35 641.71-19.75L641.71-19.75Q641.71-18.15 641.54-16.25 641.36-14.35 641.11-12.43 640.86-10.5 640.69-8.85 640.51-7.2 640.51-6.05L640.51-6.05Q640.51-5.55 640.59-4.88 640.66-4.2 640.96-3.7 641.26-3.2 641.91-3.2L641.91-3.2Q643.36-3.2 644.41-4.5 645.46-5.8 646.19-7.88 646.91-9.95 647.34-12.4 647.76-14.85 647.94-17.23 648.11-19.6 648.11-21.4L648.11-21.4Q648.11-22.1 648.06-23.25 648.01-24.4 647.96-25L647.96-25 654.41-25Q654.51-23.95 654.51-23.53 654.51-23.1 654.51-22.6L654.51-22.6Q654.51-21 654.34-18.65 654.16-16.3 653.94-13.83 653.71-11.35 653.54-9.28 653.36-7.2 653.36-6.05L653.36-6.05Q653.36-5.25 653.79-4.23 654.21-3.2 655.36-3.2L655.36-3.2Q656.66-3.2 658.14-4.23 659.61-5.25 660.94-7.03 662.26-8.8 663.11-11.13 663.96-13.45 663.96-16L663.96-16Q663.96-16.55 663.86-17.13 663.76-17.7 663.59-18.23 663.41-18.75 663.19-19.18 662.96-19.6 662.71-19.85L662.71-19.85Q662.26-19.5 661.69-19.23 661.11-18.95 660.41-18.95L660.41-18.95Q659.41-18.95 658.36-19.68 657.31-20.4 657.31-22.05L657.31-22.05Q657.31-22.75 657.66-23.58 658.01-24.4 658.86-24.98 659.71-25.55 661.11-25.55ZM703.73-6.85L703.73-6.85Q706.08-6.9 707.1-5.38 708.13-3.85 708.03-1.6L708.03-1.6Q707.98 0 707.38 1.8 706.78 3.6 705.65 5.5 704.53 7.4 702.88 9.35L702.88 9.35 701.03 7.95Q701.58 7.25 702.33 5.95 703.08 4.65 703.68 3.08 704.28 1.5 704.28 0.05L704.28 0.05Q703.93 0.15 703.7 0.18 703.48 0.2 703.23 0.2L703.23 0.2Q701.88 0.2 700.88-0.6 699.88-1.4 699.93-3.1L699.93-3.1Q700.03-4.6 701.08-5.73 702.13-6.85 703.73-6.85ZM797.56 0.8L797.56 0.8Q795.61 0.8 793.29 0.18 790.96-0.45 789.06-1.65L789.06-1.65 789.06 0.45 785.21 0.45 785.81-11.25 789.11-11.25Q789.41-8.45 790.61-6.58 791.81-4.7 793.71-3.75 795.61-2.8 797.91-2.8L797.91-2.8Q799.71-2.8 801.09-3.45 802.46-4.1 803.29-5.18 804.11-6.25 804.16-7.5L804.16-7.5Q804.26-9.25 803.11-10.43 801.96-11.6 800.16-12.43 798.36-13.25 796.51-14L796.51-14Q793.36-15.3 790.86-16.9 788.36-18.5 787.01-20.75 785.66-23 785.81-26.25L785.81-26.25Q785.91-27.8 786.59-29.48 787.26-31.15 788.69-32.58 790.11-34 792.41-34.9 794.71-35.8 798.01-35.8L798.01-35.8Q800.01-35.8 802.36-35.2 804.71-34.6 806.26-33.4L806.26-33.4 806.26-35.45 810.11-35.45 809.51-23.8 806.21-23.8Q805.91-26.6 804.86-28.48 803.81-30.35 802.09-31.3 800.36-32.25 798.01-32.2L798.01-32.2Q795.86-32.2 794.19-31 792.51-29.8 792.41-27.9L792.41-27.9Q792.36-26.35 793.16-25.18 793.96-24 795.69-22.98 797.41-21.95 800.11-20.85L800.11-20.85Q801.96-20.1 803.91-19.1 805.86-18.1 807.49-16.75 809.11-15.4 810.09-13.58 811.06-11.75 810.96-9.3L810.96-9.3Q810.81-6.35 809.09-4.05 807.36-1.75 804.41-0.48 801.46 0.8 797.56 0.8ZM852.63 0.55L852.63 0.55Q850.53 0.55 849.21-0.4 847.88-1.35 847.26-3.08 846.63-4.8 846.63-7.15L846.63-7.15Q846.63-9 846.96-11.2 847.28-13.4 847.61-15.6 847.93-17.8 847.93-19.6L847.93-19.6Q847.93-20.45 847.66-20.68 847.38-20.9 847.13-20.9L847.13-20.9Q846.58-20.9 845.98-20.05 845.38-19.2 844.73-16.95L844.73-16.95 842.03-17.75Q842.23-18.8 842.81-20.15 843.38-21.5 844.33-22.73 845.28-23.95 846.58-24.75 847.88-25.55 849.58-25.55L849.58-25.55Q852.38-25.55 853.36-24.05 854.33-22.55 854.33-19.9L854.33-19.9Q854.33-18.4 854.13-16.53 853.93-14.65 853.68-12.7 853.43-10.75 853.23-9.03 853.03-7.3 853.03-6.15L853.03-6.15Q853.03-5.4 853.18-4.93 853.33-4.45 853.63-4.25 853.93-4.05 854.43-4.05L854.43-4.05Q855.28-4.05 856.21-5.15 857.13-6.25 857.98-8.13 858.83-10 859.53-12.28 860.23-14.55 860.66-16.93 861.08-19.3 861.08-21.4L861.08-21.4Q861.08-22.1 861.06-23.25 861.03-24.4 860.93-25L860.93-25 867.38-25Q867.48-23.95 867.51-23.53 867.53-23.1 867.53-22.6L867.53-22.6Q867.53-21.55 867.41-20.08 867.28-18.6 867.08-16.9 866.88-15.2 866.63-13.5L866.63-13.5Q866.48-12.15 866.31-10.9 866.13-9.65 865.98-8.58 865.83-7.5 865.76-6.68 865.68-5.85 865.68-5.4L865.68-5.4Q865.68-4.6 865.91-4.35 866.13-4.1 866.38-4.1L866.38-4.1Q866.93-4.1 867.53-4.95 868.13-5.8 868.78-8.05L868.78-8.05 871.48-7.25Q871.28-6.2 870.83-4.85 870.38-3.5 869.58-2.27 868.78-1.05 867.63-0.25 866.48 0.55 864.83 0.55L864.83 0.55Q863.23 0.55 861.93-0.4 860.63-1.35 860.63-4L860.63-4Q860.63-5 860.73-5.7 860.83-6.4 860.88-7.25L860.88-7.25 860.83-7.25Q859.68-4.25 858.33-2.55 856.98-0.85 855.53-0.15 854.08 0.55 852.63 0.55ZM915.05-25.55L915.05-25.55Q917.35-25.55 919.17-24.8 921-24.05 922.07-22.73 923.15-21.4 923.15-19.55L923.15-19.55Q923.15-18.05 922.27-17.1 921.4-16.15 919.95-16.1L919.95-16.1Q918.25-16.05 917.55-17.13 916.85-18.2 916.85-19.05L916.85-19.05Q916.85-19.5 916.97-20.08 917.1-20.65 917.35-21.15L917.35-21.15Q917.15-21.6 916.5-21.93 915.85-22.25 914.95-22.25L914.95-22.25Q913.35-22.25 912.32-21.18 911.3-20.1 910.72-18.45 910.15-16.8 909.9-14.98 909.65-13.15 909.6-11.65L909.6-11.65Q909.5-8.95 910.1-7.3 910.7-5.65 911.7-4.9 912.7-4.15 913.75-4.05L913.75-4.05Q914.7-4 915.9-4.33 917.1-4.65 918.35-5.78 919.6-6.9 920.6-9.25L920.6-9.25 923.45-7.85Q922.05-4.6 920.3-2.78 918.55-0.95 916.6-0.23 914.65 0.5 912.55 0.55L912.55 0.55Q908.15 0.5 905.45-2.15 902.75-4.8 902.75-10.35L902.75-10.35Q902.75-12.75 903.5-15.4 904.25-18.05 905.77-20.35 907.3-22.65 909.6-24.1 911.9-25.55 915.05-25.55ZM967.82-25.55L967.82-25.55Q970.12-25.55 971.94-24.8 973.77-24.05 974.84-22.73 975.92-21.4 975.92-19.55L975.92-19.55Q975.92-18.05 975.04-17.1 974.17-16.15 972.72-16.1L972.72-16.1Q971.02-16.05 970.32-17.13 969.62-18.2 969.62-19.05L969.62-19.05Q969.62-19.5 969.74-20.08 969.87-20.65 970.12-21.15L970.12-21.15Q969.92-21.6 969.27-21.93 968.62-22.25 967.72-22.25L967.72-22.25Q966.12-22.25 965.09-21.18 964.07-20.1 963.49-18.45 962.92-16.8 962.67-14.98 962.42-13.15 962.37-11.65L962.37-11.65Q962.27-8.95 962.87-7.3 963.47-5.65 964.47-4.9 965.47-4.15 966.52-4.05L966.52-4.05Q967.47-4 968.67-4.33 969.87-4.65 971.12-5.78 972.37-6.9 973.37-9.25L973.37-9.25 976.22-7.85Q974.82-4.6 973.07-2.78 971.32-0.95 969.37-0.23 967.42 0.5 965.32 0.55L965.32 0.55Q960.92 0.5 958.22-2.15 955.52-4.8 955.52-10.35L955.52-10.35Q955.52-12.75 956.27-15.4 957.02-18.05 958.54-20.35 960.07-22.65 962.37-24.1 964.67-25.55 967.82-25.55ZM1020.93-25.55L1020.93-25.55Q1023.13-25.55 1024.83-24.9 1026.53-24.25 1027.48-22.85 1028.43-21.45 1028.43-19.25L1028.43-19.25Q1028.43-17.2 1027.21-15.78 1025.98-14.35 1024.01-13.45 1022.03-12.55 1019.68-11.98 1017.33-11.4 1015.13-11.1L1015.13-11.1Q1015.13-8.25 1015.81-6.73 1016.48-5.2 1017.53-4.63 1018.58-4.05 1019.63-4.05L1019.63-4.05Q1020.48-4.05 1021.66-4.38 1022.83-4.7 1024.03-5.75 1025.23-6.8 1026.13-8.85L1026.13-8.85 1028.93-7.5Q1027.53-4.25 1025.78-2.5 1024.03-0.75 1022.13-0.1 1020.23 0.55 1018.28 0.55L1018.28 0.55Q1013.68 0.6 1010.98-2.1 1008.28-4.8 1008.28-10.35L1008.28-10.35Q1008.28-12.75 1009.03-15.4 1009.78-18.05 1011.31-20.35 1012.83-22.65 1015.23-24.1 1017.63-25.55 1020.93-25.55ZM1020.38-22.25L1020.38-22.25Q1018.68-22.25 1017.63-21.05 1016.58-19.85 1016.03-18.03 1015.48-16.2 1015.28-14.35L1015.28-14.35Q1017.98-14.85 1019.58-15.7 1021.18-16.55 1021.91-17.65 1022.63-18.75 1022.58-19.95L1022.58-19.95Q1022.53-21.2 1021.83-21.73 1021.13-22.25 1020.38-22.25ZM1073.85-25.55L1073.85-25.55Q1076.05-25.55 1077.75-24.9 1079.45-24.25 1080.4-22.85 1081.35-21.45 1081.35-19.25L1081.35-19.25Q1081.35-17.2 1080.13-15.78 1078.9-14.35 1076.93-13.45 1074.95-12.55 1072.6-11.98 1070.25-11.4 1068.05-11.1L1068.05-11.1Q1068.05-8.25 1068.73-6.73 1069.4-5.2 1070.45-4.63 1071.5-4.05 1072.55-4.05L1072.55-4.05Q1073.4-4.05 1074.58-4.38 1075.75-4.7 1076.95-5.75 1078.15-6.8 1079.05-8.85L1079.05-8.85 1081.85-7.5Q1080.45-4.25 1078.7-2.5 1076.95-0.75 1075.05-0.1 1073.15 0.55 1071.2 0.55L1071.2 0.55Q1066.6 0.6 1063.9-2.1 1061.2-4.8 1061.2-10.35L1061.2-10.35Q1061.2-12.75 1061.95-15.4 1062.7-18.05 1064.23-20.35 1065.75-22.65 1068.15-24.1 1070.55-25.55 1073.85-25.55ZM1073.3-22.25L1073.3-22.25Q1071.6-22.25 1070.55-21.05 1069.5-19.85 1068.95-18.03 1068.4-16.2 1068.2-14.35L1068.2-14.35Q1070.9-14.85 1072.5-15.7 1074.1-16.55 1074.83-17.65 1075.55-18.75 1075.5-19.95L1075.5-19.95Q1075.45-21.2 1074.75-21.73 1074.05-22.25 1073.3-22.25ZM1121.57 0.55L1121.57 0.55Q1119.07 0.55 1117.42-0.73 1115.77-2 1114.97-4.15 1114.17-6.3 1114.17-9L1114.17-9Q1114.17-13.75 1115.64-17.5 1117.12-21.25 1120.19-23.4 1123.27-25.55 1128.02-25.55L1128.02-25.55Q1128.37-25.55 1129.22-25.53 1130.07-25.5 1130.42-25.45L1130.42-25.45Q1130.67-27.75 1130.79-29.1 1130.92-30.45 1131.02-31.25 1131.12-32.05 1131.22-32.6L1131.22-32.6Q1130.42-32.55 1129.34-32.52 1128.27-32.5 1127.72-32.45L1127.72-32.45 1127.92-36.25Q1130.27-36.25 1131.82-36.5 1133.37-36.75 1134.29-37.1 1135.22-37.45 1135.57-37.75L1135.57-37.75 1138.27-37.75Q1137.82-33.75 1137.34-29.75 1136.87-25.75 1136.42-21.75L1136.42-21.75Q1136.07-18.35 1135.67-15.2 1135.27-12.05 1135.02-9.55 1134.77-7.05 1134.77-5.55L1134.77-5.55Q1134.77-4.65 1135.02-4.38 1135.27-4.1 1135.52-4.1L1135.52-4.1Q1136.07-4.1 1136.67-4.95 1137.27-5.8 1137.92-8.05L1137.92-8.05 1140.67-7.25Q1140.47-6.2 1139.97-4.85 1139.47-3.5 1138.67-2.27 1137.87-1.05 1136.69-0.25 1135.52 0.55 1133.87 0.55L1133.87 0.55Q1132.27 0.55 1131.07-0.4 1129.87-1.35 1129.87-4L1129.87-4Q1129.87-5 1129.92-5.58 1129.97-6.15 1130.07-7L1130.07-7 1130.02-7Q1128.82-4.05 1127.37-2.4 1125.92-0.75 1124.42-0.1 1122.92 0.55 1121.57 0.55ZM1123.42-4L1123.42-4Q1124.67-4 1125.69-5.25 1126.72-6.5 1127.54-8.72 1128.37-10.95 1128.97-13.85L1128.97-13.85Q1129.32-15.65 1129.57-17.68 1129.82-19.7 1130.02-21.85L1130.02-21.85Q1129.67-22 1128.77-22.13 1127.87-22.25 1127.37-22.25L1127.37-22.25Q1125.67-22.25 1124.52-21.28 1123.37-20.3 1122.67-18.75 1121.97-17.2 1121.59-15.4 1121.22-13.6 1121.09-11.93 1120.97-10.25 1120.97-9.05L1120.97-9.05Q1120.97-6.5 1121.64-5.25 1122.32-4 1123.42-4Z" opacity="1" transform="matrix(1,0,0,1,0,0)" fill="#000000" class="slogan-text-1" data-fill-palette-color="secondary" id="text-1"></path></svg></g></svg></g></svg></g></svg></g><g transform="matrix(1,0,0,1,152.69265538460053,0)"><svg viewBox="0 0 92.11228923079885 74.44928217069989" height="74.44928217069989" width="92.11228923079885"><g><svg xmlns="http://www.w3.org/2000/svg" xmlns:xlink="http://www.w3.org/1999/xlink" version="1.1" x="8" y="0" viewBox="1.1846861823406585 2.2699999999999783 86.97331381765935 85.07300000000002" enable-background="new 0 0 90 90" xml:space="preserve" height="74.44928217069989" width="76.11228923079885" class="icon-icon-0" data-fill-palette-color="accent" id="icon-0"><g fill="#c8c8c8" data-fill-palette-color="accent"><g fill="#c8c8c8" data-fill-palette-color="accent"><path d="M86.532 87.343H6.016c-0.897 0-1.625-0.728-1.625-1.625s0.728-1.625 1.625-1.625h78.858c-0.737-18.25-13.883-33.588-31.8-36.802-0.74-0.133-1.314-0.758-1.357-1.508-0.043-0.753 0.414-1.435 1.135-1.651 8.258-2.487 14.026-10.254 14.026-18.889 0-10.876-8.849-19.723-19.724-19.723-10.877 0-19.726 8.847-19.726 19.723 0 8.763 5.637 16.346 14.028 18.871 0.772 0.231 1.257 0.992 1.14 1.79-0.118 0.799-0.803 1.39-1.609 1.39l-0.638 0.075c-3.098 0.555-6.116 1.494-8.987 2.795l6.229 19.911c0.338 1.075 0.236 2.221-0.287 3.223-0.523 1-1.405 1.736-2.483 2.074l-19.553 6.124c-1.079 0.341-2.222 0.236-3.222-0.288-1-0.522-1.737-1.405-2.074-2.483L1.378 51.29c-0.696-2.226 0.547-4.601 2.771-5.298l3.646-1.141c0.412-0.134 0.857-0.09 1.239 0.109 0.383 0.199 0.67 0.544 0.797 0.955 0.079 0.248 0.249 0.452 0.48 0.573 0.231 0.119 0.495 0.146 0.744 0.066l7.295-2.284c0.249-0.077 0.452-0.247 0.574-0.479 0.121-0.231 0.145-0.497 0.066-0.745-0.267-0.856 0.209-1.768 1.066-2.037l3.646-1.141c1.077-0.334 2.219-0.234 3.222 0.288 1 0.524 1.737 1.405 2.075 2.483 0.267 0.855-0.209 1.767-1.066 2.034-0.856 0.261-1.769-0.207-2.037-1.064-0.16-0.513-0.712-0.799-1.224-0.639l-2.402 0.751c-0.051 0.544-0.207 1.077-0.467 1.574-0.523 0.999-1.405 1.738-2.483 2.076l-7.292 2.283c-1.078 0.337-2.222 0.235-3.222-0.288-0.499-0.26-0.932-0.609-1.282-1.028L5.12 49.092c-0.514 0.161-0.802 0.711-0.641 1.227l8.595 27.435c0.078 0.25 0.248 0.454 0.479 0.575 0.232 0.12 0.497 0.145 0.746 0.064l19.553-6.123c0.249-0.08 0.452-0.25 0.574-0.479 0.119-0.231 0.144-0.495 0.066-0.744l-6.647-21.244c-0.208-0.663 0.03-1.388 0.593-1.798 0.075-0.055 0.229-0.156 0.311-0.197 2.219-1.099 4.527-1.992 6.896-2.677-7.021-4.02-11.466-11.488-11.466-19.888 0-12.667 10.306-22.973 22.977-22.973 12.666 0 22.973 10.306 22.973 22.973 0 8.34-4.621 15.985-11.686 20.002 17.479 5.32 29.715 21.621 29.715 40.473C88.157 86.615 87.43 87.343 86.532 87.343z" fill="#c8c8c8" data-fill-palette-color="accent"></path></g></g></svg></g></svg></g><g><rect width="76.15953538460056" height="2.6202343777976616" y="70.82904779290223" x="244.8049446153994" fill="#000000" data-fill-palette-color="secondary"></rect><rect width="76.15953538460056" height="2.6202343777976616" y="70.82904779290223" x="76.53311999999997" fill="#000000" data-fill-palette-color="secondary"></rect></g></svg></g><defs></defs></svg><rect width="395.52" height="143.93900784940575" fill="none" stroke="none" visibility="hidden"></rect></g></svg></g></svg>